Jinko-Regular.ufo
<glyph name="exclam" format="1">
  <advance width="451"/>
  <unicode hex="0021"/>
  <outline>
    <contour>
      <point x="225" y="-2" type="curve" smooth="yes"/>
      <point x="308" y="-2"/>
      <point x="376" y="63"/>
      <point x="376" y="147" type="curve" smooth="yes"/>
      <point x="376" y="230"/>
      <point x="308" y="296"/>
      <point x="225" y="296" type="curve" smooth="yes"/>
      <point x="142" y="296"/>
      <point x="75" y="230"/>
      <point x="75" y="147" type="curve" smooth="yes"/>
      <point x="75" y="63"/>
      <point x="142" y="-2"/>
    </contour>
    <contour>
      <point x="194" y="485" type="line"/>
      <point x="260" y="485" type="line"/>
      <point x="348" y="1481" type="line"/>
      <point x="105" y="1481" type="line"/>
    </contour>
  </outline>
</glyph>
<glyph name="quotedbl" format="1">
  <advance width="768"/>
  <unicode hex="0022"/>
  <outline>
    <contour>
      <point x="130" y="944" type="line"/>
      <point x="251" y="944" type="line"/>
      <point x="293" y="1481" type="line"/>
      <point x="88" y="1481" type="line"/>
    </contour>
    <contour>
      <point x="519" y="944" type="line"/>
      <point x="637" y="944" type="line"/>
      <point x="681" y="1481" type="line"/>
      <point x="475" y="1481" type="line"/>
    </contour>
  </outline>
</glyph>
<glyph name="dollar" format="1">
  <advance width="1170"/>
  <unicode hex="0024"/>
  <outline>
    <contour>
      <point x="566" y="-107" type="line"/>
      <point x="669" y="-107" type="line"/>
      <point x="669" y="-19" type="line"/>
      <point x="934" y="16"/>
      <point x="1118" y="127"/>
      <point x="1118" y="374" type="curve" smooth="yes"/>
      <point x="1118" y="621"/>
      <point x="986" y="728"/>
      <point x="670" y="827" type="curve"/>
      <point x="670" y="1416" type="line"/>
      <point x="801" y="1413"/>
      <point x="943" y="1355"/>
      <point x="1065" y="1274" type="curve"/>
      <point x="1085" y="1274" type="line"/>
      <point x="1102" y="1417" type="line"/>
      <point x="974" y="1488"/>
      <point x="837" y="1533"/>
      <point x="669" y="1544" type="curve"/>
      <point x="669" y="1644" type="line"/>
      <point x="566" y="1644" type="line"/>
      <point x="566" y="1542" type="line"/>
      <point x="291" y="1520"/>
      <point x="97" y="1381"/>
      <point x="97" y="1118" type="curve" smooth="yes"/>
      <point x="97" y="899"/>
      <point x="251" y="777"/>
      <point x="564" y="689" type="curve"/>
      <point x="564" y="108" type="line"/>
      <point x="418" y="109"/>
      <point x="227" y="155"/>
      <point x="92" y="301" type="curve"/>
      <point x="68" y="301" type="line"/>
      <point x="45" y="128" type="line"/>
      <point x="190" y="33"/>
      <point x="328" y="-23"/>
      <point x="566" y="-25" type="curve"/>
    </contour>
    <contour>
      <point x="673" y="113" type="curve" smooth="yes"/>
      <point x="670" y="113"/>
      <point x="670" y="148"/>
      <point x="672" y="149" type="curve"/>
      <point x="687" y="144"/>
      <point x="691" y="653"/>
      <point x="691" y="644" type="curve"/>
      <point x="914" y="567"/>
      <point x="959" y="472"/>
      <point x="946" y="351" type="curve" smooth="yes"/>
      <point x="946" y="260"/>
      <point x="898" y="133"/>
    </contour>
    <contour>
      <point x="562" y="859" type="line"/>
      <point x="333" y="914"/>
      <point x="246" y="1010"/>
      <point x="246" y="1135" type="curve" smooth="yes"/>
      <point x="246" y="1254"/>
      <point x="329" y="1393"/>
      <point x="562" y="1409" type="curve"/>
    </contour>
  </outline>
</glyph>
<glyph name="percent" format="1">
  <advance width="1719"/>
  <unicode hex="0025"/>
  <outline>
    <contour>
      <point x="316" y="769" type="curve" smooth="yes"/>
      <point x="190" y="769"/>
      <point x="130" y="850"/>
      <point x="130" y="1045" type="curve" smooth="yes"/>
      <point x="130" y="1256"/>
      <point x="193" y="1335"/>
      <point x="314" y="1335" type="curve" smooth="yes"/>
      <point x="439" y="1335"/>
      <point x="497" y="1257"/>
      <point x="497" y="1060" type="curve" smooth="yes"/>
      <point x="497" y="852"/>
      <point x="435" y="769"/>
    </contour>
    <contour>
      <point x="314" y="670" type="curve" smooth="yes"/>
      <point x="544" y="670"/>
      <point x="623" y="842"/>
      <point x="623" y="1055" type="curve" smooth="yes"/>
      <point x="623" y="1263"/>
      <point x="553" y="1425"/>
      <point x="316" y="1426" type="curve"/>
      <point x="78" y="1423"/>
      <point x="2" y="1256"/>
      <point x="2" y="1045" type="curve" smooth="yes"/>
      <point x="2" y="835"/>
      <point x="77" y="670"/>
    </contour>
    <contour>
      <point x="417" y="0" type="line"/>
      <point x="564" y="0" type="line"/>
      <point x="1293" y="1426" type="line"/>
      <point x="1148" y="1426" type="line"/>
    </contour>
    <contour>
      <point x="1407" y="98" type="curve" smooth="yes"/>
      <point x="1282" y="98"/>
      <point x="1224" y="180"/>
      <point x="1224" y="374" type="curve" smooth="yes"/>
      <point x="1224" y="585"/>
      <point x="1287" y="662"/>
      <point x="1407" y="662" type="curve" smooth="yes"/>
      <point x="1532" y="662"/>
      <point x="1591" y="585"/>
      <point x="1591" y="388" type="curve" smooth="yes"/>
      <point x="1591" y="180"/>
      <point x="1527" y="98"/>
    </contour>
    <contour>
      <point x="1407" y="-1" type="curve" smooth="yes"/>
      <point x="1638" y="-1"/>
      <point x="1717" y="172"/>
      <point x="1717" y="385" type="curve" smooth="yes"/>
      <point x="1717" y="593"/>
      <point x="1645" y="755"/>
      <point x="1407" y="756" type="curve"/>
      <point x="1170" y="753"/>
      <point x="1095" y="585"/>
      <point x="1095" y="374" type="curve" smooth="yes"/>
      <point x="1095" y="164"/>
      <point x="1171" y="-1"/>
    </contour>
  </outline>
</glyph>
<glyph name="ampersand" format="1">
  <advance width="1420"/>
  <unicode hex="0026"/>
  <outline>
    <contour>
      <point x="594" y="-23" type="curve" smooth="yes"/>
      <point x="752" y="-23"/>
      <point x="916" y="13"/>
      <point x="1047" y="111" type="curve"/>
      <point x="1107" y="55"/>
      <point x="1166" y="0"/>
      <point x="1166" y="0" type="curve"/>
      <point x="1381" y="0" type="line"/>
      <point x="1381" y="0"/>
      <point x="1151" y="205"/>
      <point x="1152" y="205" type="curve"/>
      <point x="1257" y="312"/>
      <point x="1315" y="483"/>
      <point x="1328" y="654" type="curve"/>
      <point x="1189" y="670" type="line"/>
      <point x="1172" y="510"/>
      <point x="1115" y="363"/>
      <point x="1053" y="298" type="curve"/>
      <point x="1046" y="305"/>
      <point x="594" y="764"/>
      <point x="587" y="771" type="curve"/>
      <point x="922" y="899"/>
      <point x="1007" y="1041"/>
      <point x="1006" y="1170" type="curve"/>
      <point x="1013" y="1348"/>
      <point x="889" y="1503"/>
      <point x="609" y="1503" type="curve"/>
      <point x="257" y="1503"/>
      <point x="152" y="1337"/>
      <point x="152" y="1172" type="curve" smooth="yes"/>
      <point x="152" y="1031"/>
      <point x="265" y="897"/>
      <point x="354" y="814" type="curve"/>
      <point x="140" y="718"/>
      <point x="51" y="549"/>
      <point x="51" y="388" type="curve" smooth="yes"/>
      <point x="51" y="125"/>
      <point x="284" y="-23"/>
    </contour>
    <contour>
      <point x="614" y="119" type="curve" smooth="yes"/>
      <point x="321" y="119"/>
      <point x="209" y="242"/>
      <point x="209" y="392" type="curve" smooth="yes"/>
      <point x="209" y="547"/>
      <point x="344" y="666"/>
      <point x="439" y="712" type="curve"/>
      <point x="451" y="700"/>
      <point x="929" y="219"/>
      <point x="941" y="207" type="curve"/>
      <point x="835" y="145"/>
      <point x="765" y="119"/>
    </contour>
    <contour>
      <point x="493" y="870" type="curve"/>
      <point x="361" y="1014"/>
      <point x="313" y="1083"/>
      <point x="313" y="1170" type="curve"/>
      <point x="321" y="1295"/>
      <point x="397" y="1372"/>
      <point x="586" y="1379" type="curve"/>
      <point x="812" y="1379"/>
      <point x="859" y="1273"/>
      <point x="859" y="1169" type="curve" smooth="yes"/>
      <point x="859" y="1061"/>
      <point x="748" y="953"/>
    </contour>
  </outline>
</glyph>
<glyph name="quotesingle" format="1">
  <advance width="386"/>
  <unicode hex="0027"/>
  <outline>
    <contour>
      <point x="127" y="893" type="line"/>
      <point x="87" y="1481" type="line"/>
      <point x="304" y="1481" type="line"/>
      <point x="229" y="893" type="line"/>
    </contour>
  </outline>
</glyph>
<glyph name="parenleft" format="1">
  <advance width="490"/>
  <unicode hex="0028"/>
  <outline>
    <contour>
      <point x="349" y="-312" type="curve"/>
      <point x="493" y="-312" type="line"/>
      <point x="492" y="-310"/>
      <point x="493" y="-255"/>
      <point x="492" y="-254" type="curve"/>
      <point x="339" y="-77"/>
      <point x="171" y="198"/>
      <point x="171" y="550" type="curve" smooth="yes"/>
      <point x="171" y="890"/>
      <point x="319" y="1149"/>
      <point x="490" y="1338" type="curve"/>
      <point x="491" y="1339"/>
      <point x="490" y="1393"/>
      <point x="491" y="1394" type="curve"/>
      <point x="349" y="1394" type="line"/>
      <point x="144" y="1161"/>
      <point x="6" y="889"/>
      <point x="6" y="553" type="curve" smooth="yes"/>
      <point x="6" y="175"/>
      <point x="142" y="-78"/>
    </contour>
  </outline>
</glyph>
<glyph name="parenright" format="1">
  <advance width="530"/>
  <unicode hex="0029"/>
  <outline>
    <contour>
      <point x="-2" y="-312" type="curve"/>
      <point x="185" y="-312" type="line"/>
      <point x="391" y="-78"/>
      <point x="525" y="195"/>
      <point x="525" y="540" type="curve" smooth="yes"/>
      <point x="525" y="911"/>
      <point x="391" y="1161"/>
      <point x="185" y="1394" type="curve"/>
      <point x="-2" y="1394" type="line"/>
      <point x="-1" y="1393"/>
      <point x="-1" y="1339"/>
      <point x="-1" y="1338" type="curve"/>
      <point x="157" y="1159"/>
      <point x="321" y="888"/>
      <point x="321" y="540" type="curve" smooth="yes"/>
      <point x="321" y="198"/>
      <point x="166" y="-67"/>
      <point x="-2" y="-254" type="curve"/>
      <point x="-2" y="-255"/>
      <point x="-2" y="-310"/>
    </contour>
  </outline>
</glyph>
<glyph name="comma" format="1">
  <advance width="401"/>
  <unicode hex="002C"/>
  <outline>
    <contour>
      <point x="103" y="-232" type="line"/>
      <point x="212" y="-232" type="line"/>
      <point x="325" y="279" type="line"/>
      <point x="132" y="279" type="line"/>
    </contour>
  </outline>
</glyph>
<glyph name="hyphen" format="1">
  <advance width="792"/>
  <unicode hex="002D"/>
  <outline>
    <contour>
      <point x="98" y="590" type="line"/>
      <point x="694" y="590" type="line"/>
      <point x="694" y="710" type="line"/>
      <point x="98" y="710" type="line"/>
    </contour>
  </outline>
</glyph>
<glyph name="period" format="1">
  <advance width="484"/>
  <unicode hex="002E"/>
  <outline>
    <contour>
      <point x="246" y="-1" type="curve" smooth="yes"/>
      <point x="164" y="-1"/>
      <point x="98" y="63"/>
      <point x="98" y="145" type="curve" smooth="yes"/>
      <point x="98" y="225"/>
      <point x="164" y="291"/>
      <point x="246" y="291" type="curve" smooth="yes"/>
      <point x="327" y="291"/>
      <point x="392" y="225"/>
      <point x="392" y="145" type="curve" smooth="yes"/>
      <point x="392" y="63"/>
      <point x="327" y="-1"/>
    </contour>
  </outline>
</glyph>
<glyph name="slash" format="1">
  <advance width="852"/>
  <unicode hex="002F"/>
  <outline>
    <contour>
      <point x="-5" y="0" type="line"/>
      <point x="170" y="0" type="line"/>
      <point x="856" y="1481" type="line"/>
      <point x="684" y="1481" type="line"/>
    </contour>
  </outline>
</glyph>
<glyph name="one" format="1">
  <advance width="961"/>
  <unicode hex="0031"/>
  <outline>
    <contour>
      <point x="168" y="0" type="line"/>
      <point x="898" y="0" type="line"/>
      <point x="898" y="137" type="line"/>
      <point x="626" y="137" type="line"/>
      <point x="626" y="1481" type="line"/>
      <point x="459" y="1481" type="line"/>
      <point x="428" y="1410"/>
      <point x="374" y="1360"/>
      <point x="166" y="1317" type="curve"/>
      <point x="166" y="1191" type="line"/>
      <point x="444" y="1265" type="line"/>
      <point x="444" y="137" type="line"/>
      <point x="168" y="137" type="line"/>
    </contour>
  </outline>
</glyph>
<glyph name="two" format="1">
  <advance width="1172"/>
  <unicode hex="0032"/>
  <outline>
    <contour>
      <point x="112" y="0" type="line"/>
      <point x="1056" y="0" type="line"/>
      <point x="1056" y="137" type="line"/>
      <point x="312" y="137" type="line"/>
      <point x="785" y="563"/>
      <point x="1066" y="822"/>
      <point x="1066" y="1115" type="curve" smooth="yes"/>
      <point x="1066" y="1354"/>
      <point x="903" y="1503"/>
      <point x="591" y="1503" type="curve" smooth="yes"/>
      <point x="426" y="1503"/>
      <point x="210" y="1437"/>
      <point x="135" y="1371" type="curve"/>
      <point x="172" y="1237" type="line"/>
      <point x="191" y="1256"/>
      <point x="369" y="1367"/>
      <point x="573" y="1367" type="curve" smooth="yes"/>
      <point x="830" y="1367"/>
      <point x="878" y="1231"/>
      <point x="883" y="1090" type="curve"/>
      <point x="883" y="858"/>
      <point x="540" y="553"/>
      <point x="112" y="156" type="curve"/>
    </contour>
  </outline>
</glyph>
<glyph name="three" format="1">
  <advance width="1164"/>
  <unicode hex="0033"/>
  <outline>
    <contour>
      <point x="541" y="-23" type="curve" smooth="yes"/>
      <point x="875" y="-23"/>
      <point x="1080" y="108"/>
      <point x="1080" y="404" type="curve" smooth="yes"/>
      <point x="1080" y="612"/>
      <point x="935" y="756"/>
      <point x="745" y="797" type="curve"/>
      <point x="898" y="833"/>
      <point x="1026" y="938"/>
      <point x="1026" y="1133" type="curve" smooth="yes"/>
      <point x="1026" y="1317"/>
      <point x="898" y="1504"/>
      <point x="546" y="1504" type="curve" smooth="yes"/>
      <point x="367" y="1504"/>
      <point x="225" y="1467"/>
      <point x="128" y="1399" type="curve"/>
      <point x="128" y="1279" type="line"/>
      <point x="178" y="1279" type="line"/>
      <point x="178" y="1279"/>
      <point x="267" y="1367"/>
      <point x="542" y="1367" type="curve" smooth="yes"/>
      <point x="767" y="1367"/>
      <point x="846" y="1261"/>
      <point x="846" y="1111" type="curve" smooth="yes"/>
      <point x="846" y="977"/>
      <point x="776" y="854"/>
      <point x="500" y="854" type="curve" smooth="yes"/>
      <point x="357" y="854" type="line"/>
      <point x="357" y="730" type="line"/>
      <point x="511" y="730" type="line" smooth="yes"/>
      <point x="791" y="730"/>
      <point x="906" y="593"/>
      <point x="906" y="398" type="curve" smooth="yes"/>
      <point x="906" y="179"/>
      <point x="749" y="115"/>
      <point x="549" y="115" type="curve" smooth="yes"/>
      <point x="366" y="115"/>
      <point x="216" y="179"/>
      <point x="172" y="218" type="curve"/>
      <point x="128" y="218" type="line"/>
      <point x="128" y="87" type="line"/>
      <point x="172" y="55"/>
      <point x="319" y="-23"/>
    </contour>
  </outline>
</glyph>
<glyph name="four" format="1">
  <advance width="1192"/>
  <unicode hex="0034"/>
  <outline>
    <contour>
      <point x="785" y="0" type="line"/>
      <point x="968" y="0" type="line"/>
      <point x="968" y="286" type="line"/>
      <point x="1134" y="286" type="line"/>
      <point x="1134" y="421" type="line"/>
      <point x="968" y="421" type="line"/>
      <point x="968" y="1481" type="line"/>
      <point x="716" y="1481" type="line"/>
      <point x="71" y="430" type="line"/>
      <point x="71" y="286" type="line"/>
      <point x="785" y="286" type="line"/>
    </contour>
    <contour>
      <point x="251" y="421" type="line"/>
      <point x="785" y="1329" type="line"/>
      <point x="785" y="421" type="line"/>
    </contour>
  </outline>
</glyph>
<glyph name="five" format="1">
  <advance width="1214"/>
  <unicode hex="0035"/>
  <outline>
    <contour>
      <point x="592" y="-23" type="curve" smooth="yes"/>
      <point x="927" y="-23"/>
      <point x="1122" y="125"/>
      <point x="1122" y="420" type="curve" smooth="yes"/>
      <point x="1122" y="728"/>
      <point x="867" y="884"/>
      <point x="468" y="905" type="curve" smooth="yes"/>
      <point x="437" y="907"/>
      <point x="342" y="913"/>
      <point x="342" y="914" type="curve" smooth="yes"/>
      <point x="342" y="1344" type="line"/>
      <point x="991" y="1344" type="line"/>
      <point x="991" y="1481" type="line"/>
      <point x="182" y="1481" type="line"/>
      <point x="182" y="792" type="line"/>
      <point x="182" y="792"/>
      <point x="357" y="776"/>
      <point x="389" y="774" type="curve" smooth="yes"/>
      <point x="861" y="738"/>
      <point x="941" y="584"/>
      <point x="941" y="400" type="curve" smooth="yes"/>
      <point x="941" y="253"/>
      <point x="854" y="114"/>
      <point x="573" y="114" type="curve" smooth="yes"/>
      <point x="286" y="114"/>
      <point x="202" y="217"/>
      <point x="193" y="217" type="curve" smooth="yes"/>
      <point x="142" y="217" type="line"/>
      <point x="142" y="78" type="line"/>
      <point x="241" y="21"/>
      <point x="386" y="-23"/>
    </contour>
  </outline>
</glyph>
<glyph name="six" format="1">
  <advance width="1234"/>
  <unicode hex="0036"/>
  <outline>
    <contour>
      <point x="630" y="-23" type="curve" smooth="yes"/>
      <point x="922" y="-23"/>
      <point x="1127" y="164"/>
      <point x="1127" y="453" type="curve" smooth="yes"/>
      <point x="1127" y="734"/>
      <point x="901" y="890"/>
      <point x="667" y="890" type="curve" smooth="yes"/>
      <point x="580" y="890"/>
      <point x="380" y="855"/>
      <point x="304" y="709" type="curve"/>
      <point x="360" y="1032"/>
      <point x="567" y="1347"/>
      <point x="918" y="1349" type="curve"/>
      <point x="918" y="1349"/>
      <point x="889" y="1481"/>
      <point x="885" y="1481" type="curve" smooth="yes"/>
      <point x="392" y="1481"/>
      <point x="122" y="988"/>
      <point x="122" y="536" type="curve" smooth="yes"/>
      <point x="122" y="188"/>
      <point x="330" y="-23"/>
    </contour>
    <contour>
      <point x="615" y="114" type="curve" smooth="yes"/>
      <point x="420" y="114"/>
      <point x="313" y="273"/>
      <point x="313" y="422" type="curve" smooth="yes"/>
      <point x="313" y="595"/>
      <point x="404" y="753"/>
      <point x="647" y="753" type="curve" smooth="yes"/>
      <point x="850" y="753"/>
      <point x="950" y="599"/>
      <point x="950" y="455" type="curve" smooth="yes"/>
      <point x="950" y="275"/>
      <point x="871" y="114"/>
    </contour>
  </outline>
</glyph>
<glyph name="semicolon" format="1">
  <advance width="458"/>
  <unicode hex="003B"/>
  <outline>
    <contour>
      <point x="125" y="-232" type="line"/>
      <point x="233" y="-232" type="line"/>
      <point x="346" y="279" type="line"/>
      <point x="154" y="279" type="line"/>
    </contour>
    <contour>
      <point x="243" y="732" type="curve" smooth="yes"/>
      <point x="326" y="732"/>
      <point x="393" y="799"/>
      <point x="393" y="883" type="curve" smooth="yes"/>
      <point x="393" y="965"/>
      <point x="326" y="1032"/>
      <point x="243" y="1032" type="curve" smooth="yes"/>
      <point x="159" y="1032"/>
      <point x="92" y="965"/>
      <point x="92" y="883" type="curve" smooth="yes"/>
      <point x="92" y="799"/>
      <point x="159" y="732"/>
    </contour>
  </outline>
</glyph>
<glyph name="equal" format="1">
  <advance width="1210"/>
  <unicode hex="003D"/>
  <outline>
    <contour>
      <point x="98" y="335" type="line"/>
      <point x="1112" y="335" type="line"/>
      <point x="1112" y="460" type="line"/>
      <point x="98" y="460" type="line"/>
    </contour>
    <contour>
      <point x="98" y="793" type="line"/>
      <point x="1112" y="793" type="line"/>
      <point x="1112" y="918" type="line"/>
      <point x="98" y="918" type="line"/>
    </contour>
  </outline>
</glyph>
<glyph name="A" format="1">
  <advance width="1302"/>
  <unicode hex="0041"/>
  <outline>
    <contour>
      <point x="23" y="0" type="line"/>
      <point x="206" y="0" type="line"/>
      <point x="339" y="397" type="line"/>
      <point x="964" y="397" type="line"/>
      <point x="1095" y="0" type="line"/>
      <point x="1279" y="0" type="line"/>
      <point x="759" y="1481" type="line"/>
      <point x="524" y="1481" type="line"/>
    </contour>
    <contour>
      <point x="384" y="533" type="line"/>
      <point x="643" y="1347" type="line"/>
      <point x="915" y="533" type="line"/>
    </contour>
  </outline>
</glyph>
<glyph name="B" format="1">
  <advance width="1272"/>
  <unicode hex="0042"/>
  <outline>
    <contour>
      <point x="135" y="0" type="line"/>
      <point x="634" y="0" type="line" smooth="yes"/>
      <point x="973" y="0"/>
      <point x="1201" y="129"/>
      <point x="1201" y="451" type="curve" smooth="yes"/>
      <point x="1201" y="633"/>
      <point x="1064" y="787"/>
      <point x="864" y="813" type="curve"/>
      <point x="864" y="820" type="line"/>
      <point x="1018" y="860"/>
      <point x="1100" y="984"/>
      <point x="1100" y="1106" type="curve" smooth="yes"/>
      <point x="1100" y="1391"/>
      <point x="902" y="1481"/>
      <point x="556" y="1481" type="curve" smooth="yes"/>
      <point x="135" y="1481" type="line"/>
    </contour>
    <contour>
      <point x="318" y="137" type="line"/>
      <point x="318" y="727" type="line"/>
      <point x="665" y="727" type="line" smooth="yes"/>
      <point x="849" y="727"/>
      <point x="1018" y="616"/>
      <point x="1018" y="451" type="curve" smooth="yes"/>
      <point x="1018" y="328"/>
      <point x="985" y="137"/>
      <point x="664" y="137" type="curve" smooth="yes"/>
    </contour>
    <contour>
      <point x="318" y="856" type="line"/>
      <point x="318" y="1344" type="line"/>
      <point x="604" y="1344" type="line" smooth="yes"/>
      <point x="812" y="1344"/>
      <point x="917" y="1246"/>
      <point x="917" y="1111" type="curve" smooth="yes"/>
      <point x="917" y="969"/>
      <point x="828" y="856"/>
      <point x="607" y="856" type="curve" smooth="yes"/>
    </contour>
  </outline>
</glyph>
<glyph name="C" format="1">
  <advance width="1227"/>
  <unicode hex="0043"/>
  <outline>
    <contour>
      <point x="738" y="-23" type="curve" smooth="yes"/>
      <point x="937" y="-23"/>
      <point x="1081" y="38"/>
      <point x="1160" y="105" type="curve"/>
      <point x="1127" y="233" type="line"/>
      <point x="1127" y="233"/>
      <point x="980" y="118"/>
      <point x="744" y="118" type="curve" smooth="yes"/>
      <point x="453" y="118"/>
      <point x="273" y="283"/>
      <point x="273" y="743" type="curve" smooth="yes"/>
      <point x="273" y="1203"/>
      <point x="476" y="1364"/>
      <point x="744" y="1364" type="curve" smooth="yes"/>
      <point x="996" y="1364"/>
      <point x="1120" y="1255"/>
      <point x="1120" y="1255" type="curve"/>
      <point x="1162" y="1384" type="line"/>
      <point x="1100" y="1433"/>
      <point x="940" y="1504"/>
      <point x="745" y="1504" type="curve" smooth="yes"/>
      <point x="347" y="1504"/>
      <point x="95" y="1239"/>
      <point x="95" y="746" type="curve" smooth="yes"/>
      <point x="95" y="257"/>
      <point x="279" y="-23"/>
    </contour>
  </outline>
</glyph>
<glyph name="D" format="1">
  <advance width="1416"/>
  <unicode hex="0044"/>
  <outline>
    <contour>
      <point x="318" y="137" type="line"/>
      <point x="318" y="1342" type="line"/>
      <point x="579" y="1342" type="line" smooth="yes"/>
      <point x="942" y="1342"/>
      <point x="1137" y="1133"/>
      <point x="1137" y="740" type="curve" smooth="yes"/>
      <point x="1137" y="325"/>
      <point x="957" y="137"/>
      <point x="574" y="137" type="curve" smooth="yes"/>
    </contour>
    <contour>
      <point x="135" y="0" type="line"/>
      <point x="547" y="0" type="line" smooth="yes"/>
      <point x="1067" y="0"/>
      <point x="1319" y="242"/>
      <point x="1319" y="740" type="curve" smooth="yes"/>
      <point x="1319" y="1246"/>
      <point x="1034" y="1481"/>
      <point x="552" y="1481" type="curve" smooth="yes"/>
      <point x="135" y="1481" type="line"/>
    </contour>
  </outline>
</glyph>
<glyph name="E" format="1">
  <advance width="1052"/>
  <unicode hex="0045"/>
  <outline>
    <contour>
      <point x="135" y="0" type="line"/>
      <point x="976" y="0" type="line"/>
      <point x="976" y="137" type="line"/>
      <point x="318" y="137" type="line"/>
      <point x="318" y="715" type="line"/>
      <point x="890" y="715" type="line"/>
      <point x="890" y="851" type="line"/>
      <point x="318" y="851" type="line"/>
      <point x="318" y="1344" type="line"/>
      <point x="955" y="1344" type="line"/>
      <point x="955" y="1481" type="line"/>
      <point x="135" y="1481" type="line"/>
    </contour>
  </outline>
</glyph>
<glyph name="G" format="1">
  <advance width="1412"/>
  <unicode hex="0047"/>
  <outline>
    <contour>
      <point x="776" y="-23" type="curve" smooth="yes"/>
      <point x="1060" y="-23"/>
      <point x="1239" y="72"/>
      <point x="1290" y="106" type="curve"/>
      <point x="1290" y="806" type="line"/>
      <point x="731" y="806" type="line"/>
      <point x="731" y="665" type="line"/>
      <point x="1131" y="665" type="line"/>
      <point x="1131" y="184" type="line"/>
      <point x="1132" y="183"/>
      <point x="1014" y="118"/>
      <point x="799" y="118" type="curve" smooth="yes"/>
      <point x="435" y="118"/>
      <point x="277" y="312"/>
      <point x="277" y="746" type="curve" smooth="yes"/>
      <point x="277" y="1178"/>
      <point x="487" y="1364"/>
      <point x="806" y="1364" type="curve" smooth="yes"/>
      <point x="1018" y="1364"/>
      <point x="1206" y="1262"/>
      <point x="1206" y="1259" type="curve"/>
      <point x="1246" y="1395" type="line"/>
      <point x="1160" y="1439"/>
      <point x="996" y="1503"/>
      <point x="798" y="1503" type="curve" smooth="yes"/>
      <point x="354" y="1503"/>
      <point x="95" y="1239"/>
      <point x="95" y="746" type="curve" smooth="yes"/>
      <point x="95" y="274"/>
      <point x="288" y="-23"/>
    </contour>
  </outline>
</glyph>
<glyph name="H" format="1">
  <advance width="1390"/>
  <unicode hex="0048"/>
  <outline>
    <contour>
      <point x="135" y="0" type="line"/>
      <point x="318" y="0" type="line"/>
      <point x="318" y="697" type="line"/>
      <point x="1072" y="697" type="line"/>
      <point x="1072" y="0" type="line"/>
      <point x="1255" y="0" type="line"/>
      <point x="1255" y="1481" type="line"/>
      <point x="1072" y="1481" type="line"/>
      <point x="1072" y="830" type="line"/>
      <point x="318" y="830" type="line"/>
      <point x="318" y="1481" type="line"/>
      <point x="135" y="1481" type="line"/>
    </contour>
  </outline>
</glyph>
<glyph name="I" format="1">
  <advance width="828"/>
  <unicode hex="0049"/>
  <outline>
    <contour>
      <point x="99" y="0" type="line"/>
      <point x="730" y="0" type="line"/>
      <point x="730" y="125" type="line"/>
      <point x="506" y="125" type="line"/>
      <point x="506" y="1355" type="line"/>
      <point x="730" y="1355" type="line"/>
      <point x="730" y="1481" type="line"/>
      <point x="99" y="1481" type="line"/>
      <point x="99" y="1355" type="line"/>
      <point x="323" y="1355" type="line"/>
      <point x="323" y="125" type="line"/>
      <point x="99" y="125" type="line"/>
    </contour>
  </outline>
</glyph>
<glyph name="J" format="1">
  <advance width="884"/>
  <unicode hex="004A"/>
  <outline>
    <contour>
      <point x="378" y="-19" type="curve" smooth="yes"/>
      <point x="647" y="-19"/>
      <point x="751" y="133"/>
      <point x="751" y="430" type="curve" smooth="yes"/>
      <point x="751" y="1481" type="line"/>
      <point x="329" y="1481" type="line"/>
      <point x="329" y="1344" type="line"/>
      <point x="568" y="1344" type="line"/>
      <point x="568" y="432" type="line" smooth="yes"/>
      <point x="568" y="191"/>
      <point x="494" y="119"/>
      <point x="354" y="119" type="curve" smooth="yes"/>
      <point x="250" y="119"/>
      <point x="134" y="181"/>
      <point x="127" y="184" type="curve"/>
      <point x="95" y="54" type="line"/>
      <point x="97" y="53"/>
      <point x="224" y="-19"/>
    </contour>
  </outline>
</glyph>
<glyph name="K" format="1">
  <advance width="1253"/>
  <unicode hex="004B"/>
  <outline>
    <contour>
      <point x="135" y="0" type="line"/>
      <point x="318" y="0" type="line"/>
      <point x="318" y="495" type="line"/>
      <point x="578" y="772" type="line"/>
      <point x="645" y="662" type="line"/>
      <point x="736" y="509"/>
      <point x="1030" y="12"/>
      <point x="1037" y="0" type="curve"/>
      <point x="1246" y="0" type="line"/>
      <point x="705" y="892" type="line"/>
      <point x="1219" y="1481" type="line"/>
      <point x="982" y="1481" type="line" smooth="yes"/>
      <point x="982" y="1481"/>
      <point x="624" y="1050"/>
      <point x="602" y="1029" type="curve"/>
      <point x="319" y="707" type="line"/>
      <point x="318" y="707" type="line"/>
      <point x="318" y="1481" type="line"/>
      <point x="135" y="1481" type="line"/>
    </contour>
  </outline>
</glyph>
<glyph name="L" format="1">
  <advance width="1021"/>
  <unicode hex="004C"/>
  <outline>
    <contour>
      <point x="135" y="0" type="line"/>
      <point x="986" y="0" type="line"/>
      <point x="986" y="137" type="line"/>
      <point x="318" y="137" type="line"/>
      <point x="318" y="1481" type="line"/>
      <point x="135" y="1481" type="line"/>
    </contour>
  </outline>
</glyph>
<glyph name="M" format="1">
  <advance width="1576"/>
  <unicode hex="004D"/>
  <outline>
    <contour>
      <point x="135" y="0" type="line"/>
      <point x="135" y="1481" type="line"/>
      <point x="318" y="1481" type="line"/>
      <point x="793" y="636" type="line"/>
      <point x="1266" y="1481" type="line"/>
      <point x="1441" y="1481" type="line"/>
      <point x="1441" y="0" type="line"/>
      <point x="1259" y="0" type="line"/>
      <point x="1259" y="955" type="line"/>
      <point x="1266" y="1171" type="line"/>
      <point x="866" y="449" type="line"/>
      <point x="722" y="449" type="line"/>
      <point x="311" y="1171" type="line"/>
      <point x="318" y="955" type="line"/>
      <point x="318" y="0" type="line"/>
    </contour>
  </outline>
</glyph>
<glyph name="N" format="1">
  <advance width="1500"/>
  <unicode hex="004E"/>
  <outline>
    <contour>
      <point x="135" y="0" type="line"/>
      <point x="317" y="0" type="line"/>
      <point x="317" y="981" type="line"/>
      <point x="311" y="1180" type="line"/>
      <point x="1204" y="0" type="line"/>
      <point x="1365" y="0" type="line"/>
      <point x="1365" y="1481" type="line"/>
      <point x="1183" y="1481" type="line"/>
      <point x="1183" y="536" type="line"/>
      <point x="1189" y="283" type="line"/>
      <point x="1187" y="286"/>
      <point x="281" y="1481"/>
      <point x="281" y="1481" type="curve"/>
      <point x="135" y="1481" type="line"/>
    </contour>
  </outline>
</glyph>
<glyph name="O" format="1">
  <advance width="1554"/>
  <unicode hex="004F"/>
  <outline>
    <contour>
      <point x="777" y="118" type="curve" smooth="yes"/>
      <point x="380" y="118"/>
      <point x="278" y="422"/>
      <point x="278" y="740" type="curve" smooth="yes"/>
      <point x="278" y="1041"/>
      <point x="378" y="1362"/>
      <point x="777" y="1362" type="curve" smooth="yes"/>
      <point x="1165" y="1362"/>
      <point x="1274" y="1054"/>
      <point x="1274" y="740" type="curve" smooth="yes"/>
      <point x="1274" y="424"/>
      <point x="1163" y="118"/>
    </contour>
    <contour>
      <point x="777" y="-23" type="curve" smooth="yes"/>
      <point x="1239" y="-23"/>
      <point x="1459" y="281"/>
      <point x="1459" y="740" type="curve" smooth="yes"/>
      <point x="1459" y="1205"/>
      <point x="1238" y="1503"/>
      <point x="777" y="1503" type="curve" smooth="yes"/>
      <point x="316" y="1503"/>
      <point x="95" y="1204"/>
      <point x="95" y="740" type="curve" smooth="yes"/>
      <point x="95" y="279"/>
      <point x="315" y="-23"/>
    </contour>
  </outline>
</glyph>
<glyph name="Q" format="1">
  <advance width="1554"/>
  <unicode hex="0051"/>
  <outline>
    <contour>
      <point x="987" y="-407" type="line"/>
      <point x="1133" y="-350" type="line"/>
      <point x="887" y="260" type="line"/>
      <point x="887" y="260"/>
      <point x="715" y="260"/>
      <point x="715" y="260" type="curve"/>
    </contour>
    <component base="O"/>
  </outline>
</glyph>
<glyph name="R" format="1">
  <advance width="1257"/>
  <unicode hex="0052"/>
  <outline>
    <contour>
      <point x="135" y="0" type="line"/>
      <point x="135" y="1481" type="line"/>
      <point x="642" y="1481" type="line" smooth="yes"/>
      <point x="883" y="1481"/>
      <point x="1143" y="1422"/>
      <point x="1143" y="1100" type="curve" smooth="yes"/>
      <point x="1143" y="899"/>
      <point x="1046" y="774"/>
      <point x="847" y="708" type="curve"/>
      <point x="1219" y="47" type="line"/>
      <point x="1219" y="0" type="line"/>
      <point x="1043" y="0" type="line"/>
      <point x="666" y="685" type="line"/>
      <point x="318" y="685" type="line"/>
      <point x="318" y="0" type="line"/>
    </contour>
    <contour>
      <point x="318" y="822" type="line"/>
      <point x="641" y="822" type="line" smooth="yes"/>
      <point x="870" y="822"/>
      <point x="966" y="935"/>
      <point x="966" y="1098" type="curve" smooth="yes"/>
      <point x="966" y="1246"/>
      <point x="875" y="1344"/>
      <point x="657" y="1344" type="curve" smooth="yes"/>
      <point x="318" y="1344" type="line"/>
    </contour>
  </outline>
</glyph>
<glyph name="T" format="1">
  <advance width="1115"/>
  <unicode hex="0054"/>
  <outline>
    <contour>
      <point x="467" y="0" type="line"/>
      <point x="650" y="0" type="line"/>
      <point x="650" y="1344" type="line"/>
      <point x="1091" y="1344" type="line"/>
      <point x="1091" y="1481" type="line"/>
      <point x="23" y="1481" type="line"/>
      <point x="23" y="1344" type="line"/>
      <point x="467" y="1344" type="line"/>
    </contour>
  </outline>
</glyph>
<glyph name="U" format="1">
  <advance width="1423"/>
  <unicode hex="0055"/>
  <outline>
    <contour>
      <point x="710" y="-23" type="curve" smooth="yes"/>
      <point x="1071" y="-23"/>
      <point x="1308" y="146"/>
      <point x="1308" y="478" type="curve" smooth="yes"/>
      <point x="1308" y="1481" type="line"/>
      <point x="1125" y="1481" type="line"/>
      <point x="1125" y="476" type="line" smooth="yes"/>
      <point x="1125" y="222"/>
      <point x="971" y="114"/>
      <point x="710" y="114" type="curve" smooth="yes"/>
      <point x="449" y="114"/>
      <point x="298" y="222"/>
      <point x="298" y="476" type="curve" smooth="yes"/>
      <point x="298" y="1481" type="line"/>
      <point x="116" y="1481" type="line"/>
      <point x="116" y="478" type="line" smooth="yes"/>
      <point x="116" y="145"/>
      <point x="363" y="-23"/>
    </contour>
  </outline>
</glyph>
<glyph name="V" format="1">
  <advance width="1312"/>
  <unicode hex="0056"/>
  <outline>
    <contour>
      <point x="530" y="0" type="line"/>
      <point x="792" y="0" type="line"/>
      <point x="1329" y="1481" type="line"/>
      <point x="1137" y="1481" type="line"/>
      <point x="1027" y="1170"/>
      <point x="894" y="774"/>
      <point x="784" y="465" type="curve"/>
      <point x="745" y="355"/>
      <point x="702" y="233"/>
      <point x="661" y="126" type="curve"/>
      <point x="660" y="126" type="line"/>
      <point x="620" y="234"/>
      <point x="577" y="355"/>
      <point x="537" y="464" type="curve"/>
      <point x="425" y="776"/>
      <point x="286" y="1170"/>
      <point x="173" y="1481" type="curve"/>
      <point x="-17" y="1481" type="line"/>
    </contour>
  </outline>
</glyph>
<glyph name="W" format="1">
  <advance width="1963"/>
  <unicode hex="0057"/>
  <outline>
    <contour>
      <point x="410" y="0" type="line"/>
      <point x="585" y="0" type="line"/>
      <point x="993" y="1353" type="line"/>
      <point x="1366" y="0" type="line"/>
      <point x="1542" y="0" type="line"/>
      <point x="1952" y="1481" type="line"/>
      <point x="1778" y="1481" type="line"/>
      <point x="1699" y="1186"/>
      <point x="1604" y="820"/>
      <point x="1524" y="525" type="curve"/>
      <point x="1506" y="456"/>
      <point x="1482" y="355"/>
      <point x="1463" y="285" type="curve"/>
      <point x="1444" y="355"/>
      <point x="1417" y="457"/>
      <point x="1397" y="526" type="curve"/>
      <point x="1311" y="822"/>
      <point x="1206" y="1187"/>
      <point x="1119" y="1481" type="curve"/>
      <point x="860" y="1481" type="line"/>
      <point x="772" y="1188"/>
      <point x="665" y="823"/>
      <point x="577" y="529" type="curve"/>
      <point x="556" y="458"/>
      <point x="528" y="355"/>
      <point x="507" y="284" type="curve"/>
      <point x="504" y="284" type="line"/>
      <point x="485" y="355"/>
      <point x="460" y="458"/>
      <point x="441" y="530" type="curve"/>
      <point x="363" y="822"/>
      <point x="269" y="1188"/>
      <point x="190" y="1481" type="curve"/>
      <point x="12" y="1481" type="line"/>
    </contour>
  </outline>
</glyph>
<glyph name="X" format="1">
  <advance width="1371"/>
  <unicode hex="0058"/>
  <outline>
    <contour>
      <point x="-1" y="0" type="line"/>
      <point x="209" y="0" type="line"/>
      <point x="313" y="134"/>
      <point x="438" y="304"/>
      <point x="541" y="437" type="curve"/>
      <point x="586" y="494"/>
      <point x="637" y="561"/>
      <point x="682" y="617" type="curve"/>
      <point x="724" y="560"/>
      <point x="776" y="494"/>
      <point x="818" y="436" type="curve"/>
      <point x="918" y="302"/>
      <point x="1044" y="135"/>
      <point x="1144" y="0" type="curve"/>
      <point x="1337" y="0" type="line"/>
      <point x="783" y="722" type="line"/>
      <point x="1372" y="1481" type="line"/>
      <point x="1159" y="1481" type="line"/>
      <point x="1047" y="1335"/>
      <point x="913" y="1150"/>
      <point x="802" y="1004" type="curve"/>
      <point x="765" y="955"/>
      <point x="719" y="895"/>
      <point x="681" y="848" type="curve"/>
      <point x="643" y="895"/>
      <point x="603" y="955"/>
      <point x="566" y="1004" type="curve"/>
      <point x="455" y="1150"/>
      <point x="218" y="1481"/>
      <point x="218" y="1481" type="curve"/>
      <point x="31" y="1481" type="line"/>
      <point x="581" y="741" type="line"/>
    </contour>
  </outline>
</glyph>
<glyph name="Y" format="1">
  <advance width="1303"/>
  <unicode hex="0059"/>
  <outline>
    <contour>
      <point x="552" y="0" type="line"/>
      <point x="552" y="683" type="line"/>
      <point x="-42" y="1481" type="line"/>
      <point x="156" y="1481" type="line"/>
      <point x="642" y="827" type="line"/>
      <point x="1142" y="1481" type="line"/>
      <point x="1344" y="1481" type="line"/>
      <point x="734" y="687" type="line"/>
      <point x="734" y="0" type="line"/>
    </contour>
  </outline>
</glyph>
<glyph name="bracketleft" format="1">
  <advance width="623"/>
  <unicode hex="005B"/>
  <outline>
    <contour>
      <point x="95" y="-211" type="line"/>
      <point x="540" y="-211" type="line"/>
      <point x="540" y="-75" type="line"/>
      <point x="277" y="-75" type="line"/>
      <point x="277" y="1344" type="line"/>
      <point x="540" y="1344" type="line"/>
      <point x="540" y="1481" type="line"/>
      <point x="95" y="1481" type="line"/>
    </contour>
  </outline>
</glyph>
<glyph name="asciicircum" format="1">
  <advance width="1358"/>
  <unicode hex="005E"/>
  <outline>
    <contour>
      <point x="75" y="598" type="line"/>
      <point x="310" y="598" type="line"/>
      <point x="666" y="1232" type="line"/>
      <point x="1039" y="600" type="line"/>
      <point x="1284" y="600" type="line"/>
      <point x="781" y="1387" type="line"/>
      <point x="550" y="1387" type="line"/>
    </contour>
  </outline>
</glyph>
<glyph name="underscore" format="1">
  <advance width="718"/>
  <unicode hex="005F"/>
  <outline>
    <contour>
      <point x="6" y="-120" type="line"/>
      <point x="6" y="0" type="line"/>
      <point x="712" y="0" type="line"/>
      <point x="712" y="-120" type="line"/>
    </contour>
  </outline>
</glyph>
<glyph name="grave" format="1">
  <advance width="422"/>
  <unicode hex="0060"/>
  <outline>
    <contour>
      <point x="417" y="1123" type="line"/>
      <point x="294" y="1123" type="line"/>
      <point x="11" y="1466" type="line"/>
      <point x="236" y="1466" type="line"/>
    </contour>
  </outline>
</glyph>
<glyph name="a" format="1">
  <advance width="1053"/>
  <unicode hex="0061"/>
  <outline>
    <contour>
      <point x="401" y="-21" type="curve" smooth="yes"/>
      <point x="589" y="-21"/>
      <point x="706" y="94"/>
      <point x="762" y="239" type="curve"/>
      <point x="762" y="0" type="line"/>
      <point x="945" y="0" type="line"/>
      <point x="945" y="619" type="line" smooth="yes"/>
      <point x="945" y="866"/>
      <point x="876" y="1058"/>
      <point x="528" y="1058" type="curve" smooth="yes"/>
      <point x="338" y="1058"/>
      <point x="167" y="999"/>
      <point x="139" y="981" type="curve"/>
      <point x="179" y="848" type="line"/>
      <point x="207" y="861"/>
      <point x="364" y="918"/>
      <point x="527" y="918" type="curve" smooth="yes"/>
      <point x="701" y="918"/>
      <point x="762" y="843"/>
      <point x="762" y="630" type="curve"/>
      <point x="333" y="630"/>
      <point x="73" y="573"/>
      <point x="73" y="274" type="curve"/>
      <point x="75" y="98"/>
      <point x="207" y="-21"/>
    </contour>
    <contour>
      <point x="431" y="116" type="curve" smooth="yes"/>
      <point x="341" y="116"/>
      <point x="242" y="170"/>
      <point x="242" y="282" type="curve" smooth="yes"/>
      <point x="242" y="419"/>
      <point x="343" y="511"/>
      <point x="762" y="512" type="curve"/>
      <point x="762" y="282"/>
      <point x="642" y="116"/>
    </contour>
  </outline>
</glyph>
<glyph name="b" format="1">
  <advance width="1152"/>
  <unicode hex="0062"/>
  <outline>
    <contour>
      <point x="591" y="-30" type="curve" smooth="yes"/>
      <point x="867" y="-30"/>
      <point x="1059" y="172"/>
      <point x="1059" y="531" type="curve" smooth="yes"/>
      <point x="1059" y="887"/>
      <point x="866" y="1052"/>
      <point x="630" y="1052" type="curve" smooth="yes"/>
      <point x="522" y="1052"/>
      <point x="360" y="992"/>
      <point x="303" y="888" type="curve"/>
      <point x="303" y="1429" type="line"/>
      <point x="121" y="1429" type="line"/>
      <point x="121" y="0" type="line"/>
      <point x="303" y="0" type="line"/>
      <point x="303" y="101" type="line"/>
      <point x="361" y="22"/>
      <point x="472" y="-30"/>
    </contour>
    <contour>
      <point x="576" y="115" type="curve" smooth="yes"/>
      <point x="477" y="115"/>
      <point x="378" y="151"/>
      <point x="303" y="198" type="curve"/>
      <point x="303" y="764" type="line"/>
      <point x="326" y="817"/>
      <point x="459" y="918"/>
      <point x="589" y="918" type="curve" smooth="yes"/>
      <point x="760" y="918"/>
      <point x="882" y="776"/>
      <point x="882" y="517" type="curve" smooth="yes"/>
      <point x="882" y="285"/>
      <point x="780" y="115"/>
    </contour>
  </outline>
</glyph>
<glyph name="c" format="1">
  <advance width="1025"/>
  <unicode hex="0063"/>
  <outline>
    <contour>
      <point x="623" y="-21" type="curve" smooth="yes"/>
      <point x="764" y="-21"/>
      <point x="873" y="18"/>
      <point x="952" y="67" type="curve"/>
      <point x="919" y="204" type="line"/>
      <point x="879" y="180"/>
      <point x="768" y="119"/>
      <point x="623" y="119" type="curve" smooth="yes"/>
      <point x="396" y="119"/>
      <point x="270" y="272"/>
      <point x="270" y="511" type="curve" smooth="yes"/>
      <point x="270" y="763"/>
      <point x="412" y="918"/>
      <point x="623" y="918" type="curve" smooth="yes"/>
      <point x="770" y="918"/>
      <point x="890" y="853"/>
      <point x="925" y="829" type="curve"/>
      <point x="961" y="966" type="line"/>
      <point x="836" y="1035"/>
      <point x="728" y="1055"/>
      <point x="606" y="1055" type="curve" smooth="yes"/>
      <point x="331" y="1055"/>
      <point x="93" y="878"/>
      <point x="93" y="512" type="curve" smooth="yes"/>
      <point x="93" y="144"/>
      <point x="317" y="-21"/>
    </contour>
  </outline>
</glyph>
<glyph name="d" format="1">
  <advance width="1151"/>
  <unicode hex="0064"/>
  <outline>
    <contour>
      <point x="547" y="-29" type="curve"/>
      <point x="675" y="-23"/>
      <point x="797" y="33"/>
      <point x="848" y="137" type="curve"/>
      <point x="848" y="0" type="line"/>
      <point x="1030" y="0" type="line"/>
      <point x="1030" y="1429" type="line"/>
      <point x="848" y="1429" type="line"/>
      <point x="848" y="906" type="line"/>
      <point x="786" y="1017"/>
      <point x="638" y="1053"/>
      <point x="531" y="1053" type="curve" smooth="yes"/>
      <point x="293" y="1053"/>
      <point x="93" y="864"/>
      <point x="93" y="506" type="curve" smooth="yes"/>
      <point x="93" y="149"/>
      <point x="303" y="-29"/>
    </contour>
    <contour>
      <point x="573" y="115" type="curve" smooth="yes"/>
      <point x="365" y="115"/>
      <point x="270" y="280"/>
      <point x="270" y="516" type="curve" smooth="yes"/>
      <point x="270" y="770"/>
      <point x="398" y="911"/>
      <point x="571" y="911" type="curve" smooth="yes"/>
      <point x="700" y="911"/>
      <point x="823" y="842"/>
      <point x="848" y="788" type="curve"/>
      <point x="848" y="242" type="line"/>
      <point x="827" y="190"/>
      <point x="704" y="115"/>
    </contour>
  </outline>
</glyph>
<glyph name="e" format="1">
  <advance width="1115"/>
  <unicode hex="0065"/>
  <outline>
    <contour>
      <point x="625" y="-21" type="curve" smooth="yes"/>
      <point x="861" y="-21"/>
      <point x="980" y="70"/>
      <point x="1011" y="102" type="curve"/>
      <point x="967" y="228" type="line"/>
      <point x="947" y="228" type="line"/>
      <point x="882" y="165"/>
      <point x="760" y="118"/>
      <point x="641" y="118" type="curve" smooth="yes"/>
      <point x="432" y="118"/>
      <point x="281" y="250"/>
      <point x="269" y="468" type="curve"/>
      <point x="1030" y="468" type="line"/>
      <point x="1030" y="502" type="line" smooth="yes"/>
      <point x="1030" y="796"/>
      <point x="896" y="1055"/>
      <point x="585" y="1055" type="curve" smooth="yes"/>
      <point x="308" y="1055"/>
      <point x="93" y="854"/>
      <point x="93" y="510" type="curve" smooth="yes"/>
      <point x="93" y="152"/>
      <point x="342" y="-21"/>
    </contour>
    <contour>
      <point x="272" y="596" type="line"/>
      <point x="291" y="781"/>
      <point x="410" y="918"/>
      <point x="587" y="918" type="curve"/>
      <point x="798" y="918"/>
      <point x="851" y="720"/>
      <point x="856" y="596" type="curve"/>
    </contour>
  </outline>
</glyph>
<glyph name="f" format="1">
  <advance width="706"/>
  <unicode hex="0066"/>
  <outline>
    <contour>
      <point x="205" y="0" type="line"/>
      <point x="388" y="0" type="line"/>
      <point x="388" y="907" type="line"/>
      <point x="663" y="907" type="line"/>
      <point x="663" y="1032" type="line"/>
      <point x="387" y="1032" type="line"/>
      <point x="387" y="1257"/>
      <point x="424" y="1292"/>
      <point x="570" y="1292" type="curve" smooth="yes"/>
      <point x="610" y="1292"/>
      <point x="672" y="1281"/>
      <point x="672" y="1281" type="curve"/>
      <point x="672" y="1422" type="line"/>
      <point x="618" y="1428"/>
      <point x="614" y="1433"/>
      <point x="540" y="1433" type="curve" smooth="yes"/>
      <point x="274" y="1433"/>
      <point x="205" y="1320"/>
      <point x="205" y="1069" type="curve" smooth="yes"/>
      <point x="205" y="1032" type="line"/>
      <point x="25" y="1032" type="line"/>
      <point x="25" y="907" type="line"/>
      <point x="205" y="907" type="line"/>
    </contour>
  </outline>
</glyph>
<glyph name="g" format="1">
  <advance width="1151"/>
  <unicode hex="0067"/>
  <outline>
    <contour>
      <point x="557" y="-391" type="curve" smooth="yes"/>
      <point x="885" y="-391"/>
      <point x="1030" y="-258"/>
      <point x="1030" y="139" type="curve" smooth="yes"/>
      <point x="1030" y="1032" type="line"/>
      <point x="847" y="1032" type="line"/>
      <point x="847" y="887" type="line"/>
      <point x="785" y="987"/>
      <point x="662" y="1053"/>
      <point x="540" y="1053" type="curve" smooth="yes"/>
      <point x="267" y="1053"/>
      <point x="93" y="858"/>
      <point x="93" y="512" type="curve" smooth="yes"/>
      <point x="93" y="159"/>
      <point x="293" y="-28"/>
      <point x="545" y="-28" type="curve" smooth="yes"/>
      <point x="666" y="-28"/>
      <point x="772" y="14"/>
      <point x="848" y="107" type="curve"/>
      <point x="848" y="106"/>
      <point x="848" y="52"/>
      <point x="848" y="51" type="curve" smooth="yes"/>
      <point x="848" y="-152"/>
      <point x="773" y="-254"/>
      <point x="558" y="-254" type="curve" smooth="yes"/>
      <point x="379" y="-254"/>
      <point x="254" y="-184"/>
      <point x="254" y="-184" type="curve"/>
      <point x="219" y="-316" type="line"/>
      <point x="226" y="-320"/>
      <point x="370" y="-391"/>
    </contour>
    <contour>
      <point x="564" y="107" type="curve" smooth="yes"/>
      <point x="383" y="107"/>
      <point x="270" y="258"/>
      <point x="270" y="513" type="curve" smooth="yes"/>
      <point x="270" y="731"/>
      <point x="338" y="918"/>
      <point x="563" y="918" type="curve" smooth="yes"/>
      <point x="646" y="918"/>
      <point x="776" y="879"/>
      <point x="847" y="788" type="curve"/>
      <point x="847" y="234" type="line"/>
      <point x="768" y="135"/>
      <point x="653" y="107"/>
    </contour>
  </outline>
</glyph>
<glyph name="k" format="1">
  <advance width="1062"/>
  <unicode hex="006B"/>
  <outline>
    <contour>
      <point x="115" y="0" type="line"/>
      <point x="298" y="0" type="line"/>
      <point x="298" y="410" type="line"/>
      <point x="449" y="528" type="line"/>
      <point x="878" y="0" type="line"/>
      <point x="1052" y="0" type="line"/>
      <point x="1052" y="51" type="line"/>
      <point x="583" y="607" type="line"/>
      <point x="1024" y="988" type="line"/>
      <point x="1024" y="1032" type="line"/>
      <point x="827" y="1032" type="line"/>
      <point x="298" y="583" type="line"/>
      <point x="298" y="1428" type="line"/>
      <point x="115" y="1428" type="line"/>
    </contour>
  </outline>
</glyph>
<glyph name="l" format="1">
  <advance width="567"/>
  <unicode hex="006C"/>
  <outline>
    <contour>
      <point x="453" y="-9" type="curve" smooth="yes"/>
      <point x="535" y="-9" type="line"/>
      <point x="535" y="132" type="line"/>
      <point x="347" y="132"/>
      <point x="316" y="162"/>
      <point x="316" y="310" type="curve" smooth="yes"/>
      <point x="316" y="1429" type="line"/>
      <point x="134" y="1429" type="line"/>
      <point x="134" y="316" type="line" smooth="yes"/>
      <point x="134" y="134"/>
      <point x="136" y="-9"/>
    </contour>
  </outline>
</glyph>
<glyph name="m" format="1">
  <advance width="1685"/>
  <unicode hex="006D"/>
  <outline>
    <contour>
      <point x="121" y="0" type="line"/>
      <point x="303" y="0" type="line"/>
      <point x="303" y="748" type="line"/>
      <point x="325" y="814"/>
      <point x="443" y="917"/>
      <point x="568" y="917" type="curve" smooth="yes"/>
      <point x="674" y="917"/>
      <point x="759" y="844"/>
      <point x="759" y="683" type="curve" smooth="yes"/>
      <point x="759" y="0" type="line"/>
      <point x="941" y="0" type="line"/>
      <point x="941" y="760" type="line" smooth="yes"/>
      <point x="941" y="798"/>
      <point x="1065" y="917"/>
      <point x="1202" y="917" type="curve" smooth="yes"/>
      <point x="1325" y="917"/>
      <point x="1397" y="842"/>
      <point x="1397" y="658" type="curve" smooth="yes"/>
      <point x="1397" y="0" type="line"/>
      <point x="1580" y="0" type="line"/>
      <point x="1580" y="680" type="line" smooth="yes"/>
      <point x="1580" y="941"/>
      <point x="1446" y="1058"/>
      <point x="1269" y="1058" type="curve" smooth="yes"/>
      <point x="1148" y="1058"/>
      <point x="1007" y="1002"/>
      <point x="918" y="882" type="curve"/>
      <point x="868" y="1013"/>
      <point x="763" y="1058"/>
      <point x="648" y="1058" type="curve" smooth="yes"/>
      <point x="508" y="1058"/>
      <point x="369" y="988"/>
      <point x="303" y="869" type="curve"/>
      <point x="303" y="1032" type="line"/>
      <point x="121" y="1032" type="line"/>
    </contour>
  </outline>
</glyph>
<glyph name="n" format="1">
  <advance width="1136"/>
  <unicode hex="006E"/>
  <outline>
    <contour>
      <point x="121" y="0" type="line"/>
      <point x="303" y="0" type="line"/>
      <point x="303" y="746" type="line" smooth="yes"/>
      <point x="303" y="789"/>
      <point x="447" y="917"/>
      <point x="627" y="917" type="curve" smooth="yes"/>
      <point x="730" y="917"/>
      <point x="848" y="868"/>
      <point x="848" y="703" type="curve" smooth="yes"/>
      <point x="848" y="0" type="line"/>
      <point x="1031" y="0" type="line"/>
      <point x="1031" y="691" type="line" smooth="yes"/>
      <point x="1031" y="935"/>
      <point x="882" y="1058"/>
      <point x="688" y="1058" type="curve" smooth="yes"/>
      <point x="545" y="1058"/>
      <point x="387" y="994"/>
      <point x="303" y="863" type="curve"/>
      <point x="303" y="1032" type="line"/>
      <point x="121" y="1032" type="line"/>
    </contour>
  </outline>
</glyph>
<glyph name="o" format="1">
  <advance width="1189"/>
  <unicode hex="006F"/>
  <outline>
    <contour>
      <point x="594" y="119" type="curve" smooth="yes"/>
      <point x="403" y="119"/>
      <point x="270" y="271"/>
      <point x="270" y="522" type="curve" smooth="yes"/>
      <point x="270" y="781"/>
      <point x="412" y="918"/>
      <point x="592" y="918" type="curve" smooth="yes"/>
      <point x="791" y="918"/>
      <point x="917" y="781"/>
      <point x="917" y="522" type="curve" smooth="yes"/>
      <point x="917" y="284"/>
      <point x="807" y="119"/>
    </contour>
    <contour>
      <point x="592" y="-21" type="curve" smooth="yes"/>
      <point x="850" y="-21"/>
      <point x="1096" y="135"/>
      <point x="1096" y="522" type="curve" smooth="yes"/>
      <point x="1096" y="912"/>
      <point x="850" y="1058"/>
      <point x="592" y="1058" type="curve" smooth="yes"/>
      <point x="349" y="1058"/>
      <point x="93" y="912"/>
      <point x="93" y="522" type="curve" smooth="yes"/>
      <point x="93" y="132"/>
      <point x="338" y="-21"/>
    </contour>
  </outline>
</glyph>
<glyph name="p" format="1">
  <advance width="1152"/>
  <unicode hex="0070"/>
  <outline>
    <contour>
      <point x="121" y="-388" type="line"/>
      <point x="303" y="-388" type="line"/>
      <point x="303" y="104" type="line"/>
      <point x="377" y="13"/>
      <point x="497" y="-21"/>
      <point x="619" y="-21" type="curve" smooth="yes"/>
      <point x="872" y="-21"/>
      <point x="1059" y="158"/>
      <point x="1059" y="510" type="curve" smooth="yes"/>
      <point x="1059" y="855"/>
      <point x="900" y="1053"/>
      <point x="626" y="1053" type="curve" smooth="yes"/>
      <point x="503" y="1053"/>
      <point x="366" y="985"/>
      <point x="303" y="885" type="curve"/>
      <point x="303" y="1032" type="line"/>
      <point x="121" y="1032" type="line"/>
    </contour>
    <contour>
      <point x="589" y="115" type="curve" smooth="yes"/>
      <point x="537" y="115"/>
      <point x="384" y="133"/>
      <point x="303" y="231" type="curve"/>
      <point x="303" y="787" type="line"/>
      <point x="375" y="880"/>
      <point x="512" y="918"/>
      <point x="591" y="918" type="curve" smooth="yes"/>
      <point x="803" y="918"/>
      <point x="876" y="725"/>
      <point x="876" y="511" type="curve" smooth="yes"/>
      <point x="876" y="264"/>
      <point x="773" y="115"/>
    </contour>
  </outline>
</glyph>
<glyph name="q" format="1">
  <advance width="1151"/>
  <unicode hex="0071"/>
  <outline>
    <contour>
      <point x="848" y="-388" type="line"/>
      <point x="1031" y="-388" type="line"/>
      <point x="1031" y="1032" type="line"/>
      <point x="848" y="1032" type="line"/>
      <point x="848" y="908" type="line"/>
      <point x="785" y="1008"/>
      <point x="663" y="1053"/>
      <point x="541" y="1053" type="curve" smooth="yes"/>
      <point x="271" y="1053"/>
      <point x="93" y="861"/>
      <point x="93" y="524" type="curve" smooth="yes"/>
      <point x="93" y="168"/>
      <point x="293" y="-21"/>
      <point x="549" y="-21" type="curve" smooth="yes"/>
      <point x="671" y="-21"/>
      <point x="777" y="19"/>
      <point x="848" y="107" type="curve"/>
    </contour>
    <contour>
      <point x="571" y="113" type="curve" smooth="yes"/>
      <point x="386" y="113"/>
      <point x="274" y="253"/>
      <point x="274" y="510" type="curve" smooth="yes"/>
      <point x="274" y="724"/>
      <point x="326" y="909"/>
      <point x="553" y="909" type="curve" smooth="yes"/>
      <point x="634" y="909"/>
      <point x="776" y="879"/>
      <point x="848" y="787" type="curve"/>
      <point x="848" y="231" type="line"/>
      <point x="775" y="139"/>
      <point x="633" y="113"/>
    </contour>
  </outline>
</glyph>
<glyph name="r" format="1">
  <advance width="710"/>
  <unicode hex="0072"/>
  <outline>
    <contour>
      <point x="121" y="0" type="line"/>
      <point x="121" y="1032" type="line"/>
      <point x="303" y="1032" type="line"/>
      <point x="303" y="904" type="line"/>
      <point x="304" y="904" type="line"/>
      <point x="361" y="969"/>
      <point x="473" y="1036"/>
      <point x="600" y="1036" type="curve" smooth="yes"/>
      <point x="636" y="1036"/>
      <point x="678" y="1029"/>
      <point x="703" y="1016" type="curve"/>
      <point x="681" y="857" type="line"/>
      <point x="655" y="868"/>
      <point x="606" y="880"/>
      <point x="551" y="880" type="curve" smooth="yes"/>
      <point x="474" y="880"/>
      <point x="377" y="858"/>
      <point x="303" y="784" type="curve"/>
      <point x="303" y="0" type="line"/>
    </contour>
  </outline>
</glyph>
<glyph name="s" format="1">
  <advance width="969"/>
  <unicode hex="0073"/>
  <outline>
    <contour>
      <point x="477" y="-21" type="curve"/>
      <point x="752" y="-21"/>
      <point x="893" y="94"/>
      <point x="893" y="288" type="curve" smooth="yes"/>
      <point x="893" y="475"/>
      <point x="790" y="556"/>
      <point x="547" y="605" type="curve" smooth="yes"/>
      <point x="315" y="653"/>
      <point x="259" y="682"/>
      <point x="259" y="769" type="curve" smooth="yes"/>
      <point x="259" y="887"/>
      <point x="384" y="918"/>
      <point x="487" y="918" type="curve" smooth="yes"/>
      <point x="605" y="918"/>
      <point x="733" y="877"/>
      <point x="791" y="854" type="curve"/>
      <point x="818" y="854" type="line"/>
      <point x="830" y="981" type="line"/>
      <point x="744" y="1022"/>
      <point x="641" y="1055"/>
      <point x="472" y="1055" type="curve" smooth="yes"/>
      <point x="218" y="1055"/>
      <point x="84" y="947"/>
      <point x="84" y="765" type="curve" smooth="yes"/>
      <point x="84" y="563"/>
      <point x="272" y="511"/>
      <point x="479" y="468" type="curve" smooth="yes"/>
      <point x="700" y="422"/>
      <point x="732" y="370"/>
      <point x="732" y="288" type="curve" smooth="yes"/>
      <point x="732" y="171"/>
      <point x="615" y="120"/>
      <point x="479" y="120" type="curve" smooth="yes"/>
      <point x="329" y="120"/>
      <point x="215" y="166"/>
      <point x="141" y="200" type="curve"/>
      <point x="114" y="200" type="line"/>
      <point x="88" y="71" type="line"/>
      <point x="191" y="9"/>
      <point x="342" y="-21"/>
    </contour>
  </outline>
</glyph>
<glyph name="t" format="1">
  <advance width="793"/>
  <unicode hex="0074"/>
  <outline>
    <contour>
      <point x="528" y="-13" type="curve" smooth="yes"/>
      <point x="605" y="-13"/>
      <point x="645" y="-8"/>
      <point x="712" y="5" type="curve"/>
      <point x="712" y="135" type="line"/>
      <point x="712" y="134"/>
      <point x="623" y="121"/>
      <point x="556" y="121" type="curve" smooth="yes"/>
      <point x="440" y="121"/>
      <point x="375" y="176"/>
      <point x="375" y="326" type="curve" smooth="yes"/>
      <point x="375" y="907" type="line"/>
      <point x="712" y="907" type="line"/>
      <point x="712" y="1032" type="line"/>
      <point x="375" y="1032" type="line"/>
      <point x="375" y="1352" type="line"/>
      <point x="192" y="1302" type="line"/>
      <point x="192" y="1032" type="line"/>
      <point x="52" y="1032" type="line"/>
      <point x="52" y="907" type="line"/>
      <point x="192" y="907" type="line"/>
      <point x="192" y="328" type="line" smooth="yes"/>
      <point x="192" y="91"/>
      <point x="280" y="-13"/>
    </contour>
  </outline>
</glyph>
<glyph name="u" format="1">
  <advance width="1136"/>
  <unicode hex="0075"/>
  <outline>
    <contour>
      <point x="460" y="-21" type="curve" smooth="yes"/>
      <point x="266" y="-21"/>
      <point x="105" y="97"/>
      <point x="105" y="341" type="curve" smooth="yes"/>
      <point x="105" y="1032" type="line"/>
      <point x="288" y="1032" type="line"/>
      <point x="288" y="340" type="line" smooth="yes"/>
      <point x="288" y="177"/>
      <point x="400" y="119"/>
      <point x="504" y="119" type="curve" smooth="yes"/>
      <point x="704" y="119"/>
      <point x="813" y="232"/>
      <point x="833" y="290" type="curve"/>
      <point x="833" y="1032" type="line"/>
      <point x="1016" y="1032" type="line"/>
      <point x="1016" y="0" type="line"/>
      <point x="833" y="0" type="line"/>
      <point x="833" y="162" type="line"/>
      <point x="749" y="33"/>
      <point x="603" y="-21"/>
    </contour>
  </outline>
</glyph>
<glyph name="v" format="1">
  <advance width="1058"/>
  <unicode hex="0076"/>
  <outline>
    <contour>
      <point x="422" y="0" type="line"/>
      <point x="6" y="1032" type="line"/>
      <point x="194" y="1032" type="line"/>
      <point x="482" y="286" type="line"/>
      <point x="536" y="144" type="line"/>
      <point x="538" y="144" type="line"/>
      <point x="589" y="286" type="line"/>
      <point x="854" y="1032" type="line"/>
      <point x="1051" y="1032" type="line"/>
      <point x="643" y="0" type="line"/>
    </contour>
  </outline>
</glyph>
<glyph name="w" format="1">
  <advance width="1609"/>
  <unicode hex="0077"/>
  <outline>
    <contour>
      <point x="348" y="0" type="line"/>
      <point x="566" y="0" type="line"/>
      <point x="810" y="875" type="line"/>
      <point x="813" y="875" type="line"/>
      <point x="1046" y="0" type="line"/>
      <point x="1259" y="0" type="line"/>
      <point x="1567" y="1032" type="line"/>
      <point x="1380" y="1032" type="line"/>
      <point x="1324" y="823"/>
      <point x="1254" y="555"/>
      <point x="1198" y="339" type="curve"/>
      <point x="1184" y="288"/>
      <point x="1169" y="228"/>
      <point x="1155" y="178" type="curve"/>
      <point x="1142" y="228"/>
      <point x="1126" y="289"/>
      <point x="1112" y="340" type="curve"/>
      <point x="1055" y="557"/>
      <point x="921" y="1032"/>
      <point x="921" y="1032" type="curve"/>
      <point x="696" y="1032" type="line"/>
      <point x="696" y="1032"/>
      <point x="563" y="551"/>
      <point x="506" y="333" type="curve"/>
      <point x="492" y="281"/>
      <point x="475" y="219"/>
      <point x="462" y="169" type="curve"/>
      <point x="461" y="169" type="line"/>
      <point x="447" y="219"/>
      <point x="431" y="281"/>
      <point x="417" y="333" type="curve"/>
      <point x="358" y="551"/>
      <point x="282" y="820"/>
      <point x="223" y="1032" type="curve"/>
      <point x="42" y="1032" type="line"/>
    </contour>
  </outline>
</glyph>
<glyph name="x" format="1">
  <advance width="1131"/>
  <unicode hex="0078"/>
  <outline>
    <contour>
      <point x="38" y="0" type="line"/>
      <point x="250" y="0" type="line"/>
      <point x="513" y="331" type="line"/>
      <point x="567" y="395" type="line"/>
      <point x="583" y="376"/>
      <point x="603" y="350"/>
      <point x="618" y="331" type="curve" smooth="yes"/>
      <point x="700" y="227"/>
      <point x="801" y="104"/>
      <point x="884" y="0" type="curve"/>
      <point x="1093" y="0" type="line"/>
      <point x="669" y="511" type="line"/>
      <point x="1097" y="1032" type="line"/>
      <point x="880" y="1032" type="line"/>
      <point x="805" y="939"/>
      <point x="714" y="819"/>
      <point x="638" y="727" type="curve"/>
      <point x="614" y="697"/>
      <point x="586" y="662"/>
      <point x="562" y="633" type="curve"/>
      <point x="538" y="663"/>
      <point x="509" y="698"/>
      <point x="485" y="727" type="curve"/>
      <point x="409" y="820"/>
      <point x="319" y="939"/>
      <point x="244" y="1032" type="curve"/>
      <point x="34" y="1032" type="line"/>
      <point x="459" y="513" type="line"/>
    </contour>
  </outline>
</glyph>
<glyph name="y" format="1">
  <advance width="1057"/>
  <unicode hex="0079"/>
  <outline>
    <contour>
      <point x="287" y="-391" type="curve"/>
      <point x="473" y="-391" type="line"/>
      <point x="474" y="-391"/>
      <point x="553" y="-231"/>
      <point x="604" y="-102" type="curve" smooth="yes"/>
      <point x="1059" y="1032" type="line"/>
      <point x="860" y="1032" type="line"/>
      <point x="533" y="152" type="line"/>
      <point x="197" y="1032" type="line"/>
      <point x="7" y="1032" type="line"/>
      <point x="441" y="-50" type="line"/>
      <point x="392" y="-178"/>
      <point x="341" y="-295"/>
    </contour>
  </outline>
</glyph>
<glyph name="z" format="1">
  <advance width="961"/>
  <unicode hex="007A"/>
  <outline>
    <contour>
      <point x="91" y="0" type="line"/>
      <point x="890" y="0" type="line"/>
      <point x="890" y="125" type="line"/>
      <point x="281" y="125" type="line"/>
      <point x="884" y="899" type="line"/>
      <point x="884" y="1032" type="line"/>
      <point x="117" y="1032" type="line"/>
      <point x="117" y="907" type="line"/>
      <point x="685" y="907" type="line"/>
      <point x="91" y="144" type="line"/>
    </contour>
  </outline>
</glyph>
<glyph name="braceleft" format="1">
  <advance width="788"/>
  <unicode hex="007B"/>
  <outline>
    <contour>
      <point x="702" y="-152" type="curve" smooth="yes"/>
      <point x="785" y="-152" type="line"/>
      <point x="785" y="-15" type="line"/>
      <point x="629" y="-15" type="line" smooth="yes"/>
      <point x="501" y="-15"/>
      <point x="489" y="24"/>
      <point x="489" y="137" type="curve" smooth="yes"/>
      <point x="489" y="312" type="line" smooth="yes"/>
      <point x="489" y="534"/>
      <point x="407" y="648"/>
      <point x="250" y="697" type="curve"/>
      <point x="250" y="704" type="line"/>
      <point x="409" y="753"/>
      <point x="489" y="869"/>
      <point x="489" y="1093" type="curve" smooth="yes"/>
      <point x="489" y="1257" type="line" smooth="yes"/>
      <point x="489" y="1368"/>
      <point x="502" y="1416"/>
      <point x="630" y="1416" type="curve" smooth="yes"/>
      <point x="785" y="1416" type="line"/>
      <point x="785" y="1553" type="line"/>
      <point x="697" y="1553" type="line" smooth="yes"/>
      <point x="440" y="1553"/>
      <point x="308" y="1516"/>
      <point x="308" y="1251" type="curve" smooth="yes"/>
      <point x="308" y="1086" type="line" smooth="yes"/>
      <point x="308" y="877"/>
      <point x="224" y="783"/>
      <point x="-1" y="783" type="curve"/>
      <point x="-1" y="618" type="line"/>
      <point x="224" y="618"/>
      <point x="308" y="523"/>
      <point x="308" y="314" type="curve" smooth="yes"/>
      <point x="308" y="151" type="line" smooth="yes"/>
      <point x="308" y="-117"/>
      <point x="441" y="-152"/>
    </contour>
  </outline>
</glyph>
<glyph name="braceright" format="1">
  <advance width="788"/>
  <unicode hex="007D"/>
  <outline>
    <contour>
      <point x="5" y="-152" type="line"/>
      <point x="93" y="-152" type="line" smooth="yes"/>
      <point x="350" y="-152"/>
      <point x="481" y="-117"/>
      <point x="481" y="148" type="curve" smooth="yes"/>
      <point x="481" y="314" type="line" smooth="yes"/>
      <point x="481" y="524"/>
      <point x="565" y="618"/>
      <point x="791" y="618" type="curve"/>
      <point x="791" y="783" type="line"/>
      <point x="565" y="783"/>
      <point x="481" y="877"/>
      <point x="481" y="1086" type="curve" smooth="yes"/>
      <point x="481" y="1249" type="line" smooth="yes"/>
      <point x="481" y="1517"/>
      <point x="350" y="1553"/>
      <point x="88" y="1553" type="curve" smooth="yes"/>
      <point x="5" y="1553" type="line"/>
      <point x="5" y="1416" type="line"/>
      <point x="159" y="1416" type="line" smooth="yes"/>
      <point x="288" y="1416"/>
      <point x="299" y="1377"/>
      <point x="299" y="1264" type="curve" smooth="yes"/>
      <point x="299" y="1089" type="line" smooth="yes"/>
      <point x="299" y="867"/>
      <point x="381" y="752"/>
      <point x="538" y="704" type="curve"/>
      <point x="538" y="697" type="line"/>
      <point x="379" y="647"/>
      <point x="299" y="533"/>
      <point x="299" y="308" type="curve" smooth="yes"/>
      <point x="299" y="142" type="line" smooth="yes"/>
      <point x="299" y="32"/>
      <point x="287" y="-16"/>
      <point x="159" y="-16" type="curve" smooth="yes"/>
      <point x="5" y="-16" type="line"/>
    </contour>
  </outline>
</glyph>
<glyph name="asciitilde" format="1">
  <advance width="1347"/>
  <unicode hex="007E"/>
  <outline>
    <contour>
      <point x="908" y="309" type="curve" smooth="yes"/>
      <point x="1120" y="323"/>
      <point x="1197" y="483"/>
      <point x="1218" y="757" type="curve"/>
      <point x="1226" y="757"/>
      <point x="1072" y="767"/>
      <point x="1091" y="767" type="curve"/>
      <point x="1108" y="611"/>
      <point x="1092" y="499"/>
      <point x="992" y="524" type="curve" smooth="yes"/>
      <point x="822" y="524"/>
      <point x="607" y="815"/>
      <point x="423" y="815" type="curve" smooth="yes"/>
      <point x="268" y="803"/>
      <point x="155" y="679"/>
      <point x="130" y="372" type="curve"/>
      <point x="115" y="372"/>
      <point x="270" y="356"/>
      <point x="255" y="356" type="curve"/>
      <point x="238" y="532"/>
      <point x="273" y="619"/>
      <point x="351" y="594" type="curve" smooth="yes"/>
      <point x="439" y="594"/>
      <point x="660" y="309"/>
    </contour>
  </outline>
</glyph>
<glyph name="cent" format="1">
  <advance width="997"/>
  <unicode hex="00A2"/>
  <outline>
    <contour>
      <point x="477" y="-290" type="line"/>
      <point x="583" y="-290" type="line"/>
      <point x="583" y="1304" type="line"/>
      <point x="477" y="1304" type="line"/>
    </contour>
    <component base="c" xOffset="-100"/>
  </outline>
</glyph>
<glyph name="sterling" format="1">
  <advance width="1215"/>
  <unicode hex="00A3"/>
  <outline>
    <contour>
      <point x="814" y="-35" type="curve" smooth="yes"/>
      <point x="919" y="-35"/>
      <point x="1036" y="-4"/>
      <point x="1144" y="24" type="curve"/>
      <point x="1109" y="163" type="line"/>
      <point x="1016" y="146"/>
      <point x="856" y="109"/>
      <point x="763" y="109" type="curve" smooth="yes"/>
      <point x="674" y="109"/>
      <point x="499" y="147"/>
      <point x="410" y="149" type="curve"/>
      <point x="473" y="252"/>
      <point x="546" y="470"/>
      <point x="546" y="570" type="curve" smooth="yes"/>
      <point x="546" y="581"/>
      <point x="541" y="676"/>
      <point x="540" y="686" type="curve"/>
      <point x="964" y="686" type="line"/>
      <point x="964" y="810" type="line"/>
      <point x="519" y="810" type="line"/>
      <point x="505" y="875"/>
      <point x="433" y="1056"/>
      <point x="433" y="1131" type="curve" smooth="yes"/>
      <point x="433" y="1278"/>
      <point x="514" y="1367"/>
      <point x="728" y="1367" type="curve" smooth="yes"/>
      <point x="819" y="1367"/>
      <point x="934" y="1355"/>
      <point x="1007" y="1248" type="curve"/>
      <point x="1066" y="1248" type="line"/>
      <point x="1066" y="1400" type="line"/>
      <point x="1009" y="1457"/>
      <point x="857" y="1504"/>
      <point x="707" y="1504" type="curve" smooth="yes"/>
      <point x="431" y="1504"/>
      <point x="228" y="1376"/>
      <point x="228" y="1173" type="curve" smooth="yes"/>
      <point x="228" y="1070"/>
      <point x="298" y="946"/>
      <point x="325" y="810" type="curve"/>
      <point x="89" y="810" type="line"/>
      <point x="89" y="686" type="line"/>
      <point x="351" y="686" type="line"/>
      <point x="351" y="685"/>
      <point x="364" y="648"/>
      <point x="364" y="579" type="curve" smooth="yes"/>
      <point x="364" y="486"/>
      <point x="341" y="344"/>
      <point x="256" y="144" type="curve"/>
      <point x="218" y="135"/>
      <point x="145" y="131"/>
      <point x="80" y="125" type="curve"/>
      <point x="80" y="-16" type="line"/>
      <point x="155" y="-6"/>
      <point x="224" y="11"/>
      <point x="293" y="11" type="curve" smooth="yes"/>
      <point x="454" y="11"/>
      <point x="656" y="-35"/>
    </contour>
  </outline>
</glyph>
<glyph name="currency" format="1">
  <advance width="1024"/>
  <unicode hex="00A4"/>
  <outline>
    <contour>
      <point x="181" y="252" type="line"/>
      <point x="276" y="347" type="line"/>
      <point x="330" y="307"/>
      <point x="419" y="272"/>
      <point x="514" y="272" type="curve" smooth="yes"/>
      <point x="609" y="272"/>
      <point x="693" y="304"/>
      <point x="750" y="347" type="curve"/>
      <point x="845" y="252" type="line"/>
      <point x="944" y="352" type="line"/>
      <point x="852" y="446" type="line"/>
      <point x="894" y="500"/>
      <point x="927" y="589"/>
      <point x="927" y="685" type="curve" smooth="yes"/>
      <point x="927" y="780"/>
      <point x="894" y="868"/>
      <point x="852" y="924" type="curve"/>
      <point x="944" y="1018" type="line"/>
      <point x="845" y="1117" type="line"/>
      <point x="750" y="1026" type="line"/>
      <point x="693" y="1068"/>
      <point x="609" y="1099"/>
      <point x="514" y="1099" type="curve" smooth="yes"/>
      <point x="419" y="1099"/>
      <point x="330" y="1066"/>
      <point x="276" y="1024" type="curve"/>
      <point x="181" y="1117" type="line"/>
      <point x="79" y="1018" type="line"/>
      <point x="173" y="924" type="line"/>
      <point x="130" y="868"/>
      <point x="99" y="780"/>
      <point x="99" y="685" type="curve" smooth="yes"/>
      <point x="99" y="590"/>
      <point x="131" y="500"/>
      <point x="173" y="448" type="curve"/>
      <point x="79" y="352" type="line"/>
    </contour>
    <contour>
      <point x="514" y="408" type="curve" smooth="yes"/>
      <point x="357" y="408"/>
      <point x="250" y="514"/>
      <point x="250" y="685" type="curve" smooth="yes"/>
      <point x="250" y="855"/>
      <point x="357" y="963"/>
      <point x="514" y="963" type="curve" smooth="yes"/>
      <point x="673" y="963"/>
      <point x="779" y="855"/>
      <point x="779" y="685" type="curve" smooth="yes"/>
      <point x="779" y="514"/>
      <point x="673" y="408"/>
    </contour>
  </outline>
</glyph>
<glyph name="brokenbar" format="1">
  <advance width="331"/>
  <unicode hex="00A6"/>
  <outline>
    <contour>
      <point x="98" y="-337" type="line"/>
      <point x="233" y="-337" type="line"/>
      <point x="233" y="337" type="line"/>
      <point x="98" y="337" type="line"/>
    </contour>
    <contour>
      <point x="98" y="625" type="line"/>
      <point x="233" y="625" type="line"/>
      <point x="233" y="1296" type="line"/>
      <point x="98" y="1296" type="line"/>
    </contour>
  </outline>
</glyph>
<glyph name="section" format="1">
  <advance width="984"/>
  <unicode hex="00A7"/>
  <outline>
    <contour>
      <point x="482" y="-201" type="curve"/>
      <point x="780" y="-198"/>
      <point x="903" y="-88"/>
      <point x="903" y="106" type="curve" smooth="yes"/>
      <point x="903" y="230"/>
      <point x="864" y="307"/>
      <point x="774" y="357" type="curve"/>
      <point x="864" y="407"/>
      <point x="903" y="489"/>
      <point x="903" y="599" type="curve" smooth="yes"/>
      <point x="903" y="795"/>
      <point x="809" y="854"/>
      <point x="557" y="915" type="curve" smooth="yes"/>
      <point x="319" y="974"/>
      <point x="261" y="997"/>
      <point x="261" y="1093" type="curve" smooth="yes"/>
      <point x="261" y="1209"/>
      <point x="364" y="1229"/>
      <point x="465" y="1229" type="curve" smooth="yes"/>
      <point x="607" y="1229"/>
      <point x="781" y="1168"/>
      <point x="815" y="1154" type="curve"/>
      <point x="828" y="1300" type="line"/>
      <point x="738" y="1343"/>
      <point x="620" y="1376"/>
      <point x="451" y="1376" type="curve" smooth="yes"/>
      <point x="197" y="1376"/>
      <point x="83" y="1267"/>
      <point x="83" y="1085" type="curve" smooth="yes"/>
      <point x="83" y="962"/>
      <point x="156" y="893"/>
      <point x="260" y="849" type="curve"/>
      <point x="138" y="807"/>
      <point x="83" y="715"/>
      <point x="83" y="586" type="curve" smooth="yes"/>
      <point x="83" y="384"/>
      <point x="278" y="337"/>
      <point x="485" y="294" type="curve" smooth="yes"/>
      <point x="706" y="248"/>
      <point x="732" y="191"/>
      <point x="732" y="109" type="curve" smooth="yes"/>
      <point x="732" y="-8"/>
      <point x="642" y="-52"/>
      <point x="474" y="-52" type="curve" smooth="yes"/>
      <point x="306" y="-52"/>
      <point x="187" y="-4"/>
      <point x="114" y="32" type="curve"/>
      <point x="88" y="-110" type="line"/>
      <point x="191" y="-171"/>
      <point x="347" y="-201"/>
    </contour>
    <contour>
      <point x="599" y="419" type="line"/>
      <point x="588" y="422"/>
      <point x="573" y="425"/>
      <point x="561" y="428" type="curve" smooth="yes"/>
      <point x="310" y="479"/>
      <point x="246" y="509"/>
      <point x="246" y="611" type="curve" smooth="yes"/>
      <point x="246" y="705"/>
      <point x="314" y="776"/>
      <point x="448" y="794" type="curve"/>
      <point x="462" y="791"/>
      <point x="473" y="789"/>
      <point x="485" y="786" type="curve" smooth="yes"/>
      <point x="706" y="740"/>
      <point x="732" y="693"/>
      <point x="732" y="608" type="curve" smooth="yes"/>
      <point x="732" y="515"/>
      <point x="682" y="454"/>
      <point x="601" y="419" type="curve"/>
    </contour>
  </outline>
</glyph>
<glyph name="dieresis" format="1">
  <advance width="690"/>
  <unicode hex="00A8"/>
  <outline>
    <contour>
      <point x="97" y="1217" type="line"/>
      <point x="278" y="1217" type="line"/>
      <point x="278" y="1424" type="line"/>
      <point x="97" y="1424" type="line"/>
    </contour>
    <contour>
      <point x="413" y="1217" type="line"/>
      <point x="593" y="1217" type="line"/>
      <point x="593" y="1424" type="line"/>
      <point x="413" y="1424" type="line"/>
    </contour>
  </outline>
</glyph>
<glyph name="copyright" format="1">
  <advance width="1728"/>
  <unicode hex="00A9"/>
  <outline>
    <contour>
      <point x="888" y="217" type="curve" smooth="yes"/>
      <point x="987" y="217"/>
      <point x="1076" y="240"/>
      <point x="1166" y="302" type="curve"/>
      <point x="1120" y="380" type="line"/>
      <point x="1120" y="380"/>
      <point x="1017" y="308"/>
      <point x="901" y="308" type="curve" smooth="yes"/>
      <point x="740" y="308"/>
      <point x="600" y="408"/>
      <point x="600" y="626" type="curve" smooth="yes"/>
      <point x="600" y="845"/>
      <point x="746" y="939"/>
      <point x="874" y="939" type="curve" smooth="yes"/>
      <point x="966" y="939"/>
      <point x="1002" y="929"/>
      <point x="1106" y="867" type="curve"/>
      <point x="1142" y="941" type="line"/>
      <point x="1059" y="1004"/>
      <point x="963" y="1030"/>
      <point x="867" y="1030" type="curve" smooth="yes"/>
      <point x="634" y="1030"/>
      <point x="475" y="875"/>
      <point x="475" y="628" type="curve" smooth="yes"/>
      <point x="475" y="326"/>
      <point x="691" y="217"/>
    </contour>
    <contour>
      <point x="863" y="-21" type="curve" smooth="yes"/>
      <point x="526" y="-21"/>
      <point x="200" y="244"/>
      <point x="200" y="623" type="curve" smooth="yes"/>
      <point x="200" y="988"/>
      <point x="511" y="1268"/>
      <point x="863" y="1268" type="curve" smooth="yes"/>
      <point x="1201" y="1268"/>
      <point x="1522" y="1000"/>
      <point x="1522" y="623" type="curve" smooth="yes"/>
      <point x="1522" y="250"/>
      <point x="1203" y="-21"/>
    </contour>
    <contour>
      <point x="863" y="-125" type="curve" smooth="yes"/>
      <point x="1288" y="-125"/>
      <point x="1641" y="219"/>
      <point x="1641" y="623" type="curve" smooth="yes"/>
      <point x="1641" y="1033"/>
      <point x="1276" y="1372"/>
      <point x="863" y="1372" type="curve" smooth="yes"/>
      <point x="438" y="1372"/>
      <point x="85" y="1028"/>
      <point x="85" y="623" type="curve" smooth="yes"/>
      <point x="85" y="195"/>
      <point x="454" y="-125"/>
    </contour>
  </outline>
</glyph>
<glyph name="guillemotleft" format="1">
  <advance width="885"/>
  <unicode hex="00AB"/>
  <outline>
    <contour>
      <point x="468" y="160" type="curve"/>
      <point x="468" y="354" type="line"/>
      <point x="462" y="359"/>
      <point x="162" y="582"/>
      <point x="162" y="582" type="curve"/>
      <point x="468" y="815" type="line"/>
      <point x="468" y="1021" type="line"/>
      <point x="468" y="1021"/>
      <point x="96" y="714"/>
      <point x="1" y="635" type="curve"/>
      <point x="1" y="533" type="line"/>
      <point x="95" y="463"/>
      <point x="468" y="160"/>
    </contour>
    <contour>
      <point x="879" y="160" type="curve"/>
      <point x="879" y="354" type="line"/>
      <point x="874" y="359"/>
      <point x="572" y="582"/>
      <point x="572" y="582" type="curve"/>
      <point x="879" y="815" type="line"/>
      <point x="879" y="1021" type="line"/>
      <point x="879" y="1021"/>
      <point x="506" y="714"/>
      <point x="411" y="635" type="curve"/>
      <point x="411" y="533" type="line"/>
      <point x="505" y="463"/>
      <point x="879" y="160"/>
    </contour>
  </outline>
</glyph>
<glyph name="logicalnot" format="1">
  <advance width="1182"/>
  <unicode hex="00AC"/>
  <outline>
    <contour>
      <point x="956" y="260" type="line"/>
      <point x="1084" y="260" type="line"/>
      <point x="1084" y="776" type="line"/>
      <point x="94" y="776" type="line"/>
      <point x="94" y="650" type="line"/>
      <point x="956" y="650" type="line"/>
    </contour>
  </outline>
</glyph>
<glyph name="registered" format="1">
  <advance width="1729"/>
  <unicode hex="00AE"/>
  <outline>
    <contour>
      <point x="555" y="233" type="line"/>
      <point x="675" y="233" type="line"/>
      <point x="675" y="591" type="line"/>
      <point x="878" y="591" type="line"/>
      <point x="1121" y="233" type="line"/>
      <point x="1223" y="233" type="line"/>
      <point x="1223" y="276" type="line"/>
      <point x="995" y="606" type="line"/>
      <point x="1106" y="616"/>
      <point x="1192" y="692"/>
      <point x="1192" y="825" type="curve" smooth="yes"/>
      <point x="1192" y="1021"/>
      <point x="1015" y="1057"/>
      <point x="843" y="1057" type="curve" smooth="yes"/>
      <point x="555" y="1057" type="line"/>
    </contour>
    <contour>
      <point x="675" y="682" type="line"/>
      <point x="675" y="964" type="line"/>
      <point x="845" y="964" type="line" smooth="yes"/>
      <point x="1070" y="964"/>
      <point x="1076" y="903"/>
      <point x="1076" y="812" type="curve" smooth="yes"/>
      <point x="1076" y="734"/>
      <point x="1012" y="682"/>
      <point x="900" y="682" type="curve" smooth="yes"/>
    </contour>
    <contour>
      <point x="864" y="-21" type="curve" smooth="yes"/>
      <point x="527" y="-21"/>
      <point x="201" y="244"/>
      <point x="201" y="623" type="curve" smooth="yes"/>
      <point x="201" y="988"/>
      <point x="512" y="1268"/>
      <point x="864" y="1268" type="curve" smooth="yes"/>
      <point x="1202" y="1268"/>
      <point x="1523" y="1000"/>
      <point x="1523" y="623" type="curve" smooth="yes"/>
      <point x="1523" y="250"/>
      <point x="1204" y="-21"/>
    </contour>
    <contour>
      <point x="864" y="-125" type="curve" smooth="yes"/>
      <point x="1289" y="-125"/>
      <point x="1642" y="219"/>
      <point x="1642" y="623" type="curve" smooth="yes"/>
      <point x="1642" y="1033"/>
      <point x="1277" y="1372"/>
      <point x="864" y="1372" type="curve" smooth="yes"/>
      <point x="439" y="1372"/>
      <point x="86" y="1028"/>
      <point x="86" y="623" type="curve" smooth="yes"/>
      <point x="86" y="195"/>
      <point x="455" y="-125"/>
    </contour>
  </outline>
</glyph>
<glyph name="macron" format="1">
  <advance width="750"/>
  <unicode hex="00AF"/>
  <outline>
    <contour>
      <point x="99" y="1179" type="line"/>
      <point x="99" y="1295" type="line"/>
      <point x="651" y="1295" type="line"/>
      <point x="651" y="1179" type="line"/>
    </contour>
  </outline>
</glyph>
<glyph name="guillemotright" format="1">
  <advance width="972"/>
  <unicode hex="00BB"/>
  <outline>
    <contour>
      <point x="52" y="159" type="line"/>
      <point x="52" y="159"/>
      <point x="426" y="467"/>
      <point x="521" y="545" type="curve"/>
      <point x="521" y="648" type="line"/>
      <point x="427" y="718"/>
      <point x="52" y="1021"/>
      <point x="52" y="1021" type="curve"/>
      <point x="52" y="827" type="line"/>
      <point x="58" y="823"/>
      <point x="360" y="600"/>
      <point x="360" y="600" type="curve"/>
      <point x="52" y="367" type="line"/>
    </contour>
    <contour>
      <point x="462" y="159" type="line"/>
      <point x="462" y="159"/>
      <point x="836" y="467"/>
      <point x="931" y="545" type="curve"/>
      <point x="931" y="648" type="line"/>
      <point x="837" y="718"/>
      <point x="462" y="1021"/>
      <point x="462" y="1021" type="curve"/>
      <point x="462" y="827" type="line"/>
      <point x="468" y="823"/>
      <point x="769" y="600"/>
      <point x="769" y="600" type="curve"/>
      <point x="462" y="367" type="line"/>
    </contour>
  </outline>
</glyph>
<glyph name="onequarter" format="1">
  <advance width="1359"/>
  <unicode hex="00BC"/>
  <outline>
    <contour>
      <point x="1165" y="0" type="line"/>
      <point x="1274" y="0" type="line"/>
      <point x="1274" y="120" type="line"/>
      <point x="1360" y="120" type="line"/>
      <point x="1360" y="223" type="line"/>
      <point x="1274" y="223" type="line"/>
      <point x="1274" y="818" type="line"/>
      <point x="1103" y="818" type="line"/>
      <point x="755" y="223" type="line"/>
      <point x="755" y="120" type="line"/>
      <point x="1165" y="120" type="line"/>
    </contour>
    <contour>
      <point x="247" y="0" type="line"/>
      <point x="374" y="0" type="line"/>
      <point x="1206" y="1429" type="line"/>
      <point x="1077" y="1429" type="line"/>
    </contour>
    <contour>
      <point x="873" y="223" type="line"/>
      <point x="1165" y="728" type="line"/>
      <point x="1165" y="223" type="line"/>
    </contour>
    <component base="one.superior" xOffset="-120"/>
  </outline>
</glyph>
<glyph name="onehalf" format="1">
  <advance width="1539"/>
  <unicode hex="00BD"/>
  <outline>
    <contour>
      <point x="263" y="0" type="line"/>
      <point x="390" y="0" type="line"/>
      <point x="1222" y="1429" type="line"/>
      <point x="1095" y="1429" type="line"/>
    </contour>
    <component base="two.superior" xOffset="836" yOffset="-553"/>
    <component base="one.superior" xOffset="-73"/>
  </outline>
</glyph>
<glyph name="threequarters" format="1">
  <advance width="1422"/>
  <unicode hex="00BE"/>
  <outline>
    <contour>
      <point x="1227" y="0" type="line"/>
      <point x="1335" y="0" type="line"/>
      <point x="1335" y="120" type="line"/>
      <point x="1422" y="120" type="line"/>
      <point x="1422" y="223" type="line"/>
      <point x="1335" y="223" type="line"/>
      <point x="1335" y="818" type="line"/>
      <point x="1165" y="818" type="line"/>
      <point x="818" y="223" type="line"/>
      <point x="818" y="120" type="line"/>
      <point x="1227" y="120" type="line"/>
    </contour>
    <contour>
      <point x="309" y="0" type="line"/>
      <point x="436" y="0" type="line"/>
      <point x="1268" y="1429" type="line"/>
      <point x="1141" y="1429" type="line"/>
    </contour>
    <contour>
      <point x="936" y="223" type="line"/>
      <point x="1227" y="728" type="line"/>
      <point x="1227" y="223" type="line"/>
    </contour>
    <component base="three.superior" xOffset="-29"/>
  </outline>
</glyph>
<glyph name="Eth" format="1">
  <advance width="1388"/>
  <unicode hex="00D0"/>
  <outline>
    <contour>
      <point x="0" y="699" type="line"/>
      <point x="661" y="699" type="line"/>
      <point x="661" y="826" type="line"/>
      <point x="0" y="826" type="line"/>
    </contour>
    <component base="D"/>
  </outline>
</glyph>
<glyph name="Oslash" format="1">
  <advance width="1565"/>
  <unicode hex="00D8"/>
  <outline>
    <contour>
      <point x="783" y="-23" type="curve" smooth="yes"/>
      <point x="600" y="-23"/>
      <point x="454" y="26"/>
      <point x="345" y="112" type="curve"/>
      <point x="254" y="0" type="line"/>
      <point x="60" y="0" type="line"/>
      <point x="241" y="222" type="line"/>
      <point x="147" y="353"/>
      <point x="102" y="529"/>
      <point x="102" y="740" type="curve" smooth="yes"/>
      <point x="102" y="1204"/>
      <point x="323" y="1503"/>
      <point x="783" y="1503" type="curve" smooth="yes"/>
      <point x="953" y="1503"/>
      <point x="1091" y="1462"/>
      <point x="1196" y="1388" type="curve"/>
      <point x="1271" y="1481" type="line"/>
      <point x="1467" y="1481" type="line"/>
      <point x="1306" y="1285" type="line"/>
      <point x="1412" y="1154"/>
      <point x="1465" y="966"/>
      <point x="1465" y="740" type="curve" smooth="yes"/>
      <point x="1465" y="281"/>
      <point x="1245" y="-23"/>
    </contour>
    <contour>
      <point x="357" y="362" type="curve"/>
      <point x="1094" y="1263" type="line"/>
      <point x="1019" y="1325"/>
      <point x="918" y="1362"/>
      <point x="783" y="1362" type="curve" smooth="yes"/>
      <point x="384" y="1362"/>
      <point x="284" y="1041"/>
      <point x="284" y="740" type="curve" smooth="yes"/>
      <point x="284" y="604"/>
      <point x="304" y="471"/>
    </contour>
    <contour>
      <point x="783" y="118" type="curve" smooth="yes"/>
      <point x="1169" y="118"/>
      <point x="1280" y="424"/>
      <point x="1280" y="740" type="curve" smooth="yes"/>
      <point x="1280" y="887"/>
      <point x="1258" y="1032"/>
      <point x="1192" y="1145" type="curve"/>
      <point x="447" y="235" type="line"/>
      <point x="524" y="162"/>
      <point x="632" y="118"/>
    </contour>
  </outline>
</glyph>
<glyph name="germandbls" format="1">
  <advance width="1234"/>
  <unicode hex="00DF"/>
  <outline>
    <contour>
      <point x="165" y="0" type="curve"/>
      <point x="191" y="0"/>
      <point x="368" y="13"/>
      <point x="368" y="34" type="curve"/>
      <point x="368" y="46"/>
      <point x="360" y="1035"/>
      <point x="342" y="1041" type="curve" smooth="yes"/>
      <point x="342" y="1268"/>
      <point x="471" y="1333"/>
      <point x="612" y="1333" type="curve" smooth="yes"/>
      <point x="780" y="1335"/>
      <point x="876" y="1260"/>
      <point x="876" y="1174" type="curve" smooth="yes"/>
      <point x="876" y="1085"/>
      <point x="799" y="990"/>
      <point x="569" y="990" type="curve"/>
      <point x="544" y="990"/>
      <point x="531" y="874"/>
      <point x="531" y="851" type="curve"/>
      <point x="806" y="851"/>
      <point x="937" y="579"/>
      <point x="937" y="408" type="curve" smooth="yes"/>
      <point x="937" y="256"/>
      <point x="850" y="116"/>
      <point x="601" y="116" type="curve" smooth="yes"/>
      <point x="584" y="116"/>
      <point x="491" y="196"/>
      <point x="491" y="196" type="curve"/>
      <point x="491" y="212"/>
      <point x="499" y="100"/>
      <point x="511" y="100" type="curve"/>
      <point x="523" y="100"/>
      <point x="625" y="94"/>
      <point x="643" y="87" type="curve" smooth="yes"/>
      <point x="1000" y="78"/>
      <point x="1145" y="264"/>
      <point x="1134" y="474" type="curve" smooth="yes"/>
      <point x="1134" y="660"/>
      <point x="1014" y="825"/>
      <point x="774" y="889" type="curve"/>
      <point x="792" y="889"/>
      <point x="802" y="875"/>
      <point x="802" y="864" type="curve"/>
      <point x="943" y="874"/>
      <point x="1024" y="992"/>
      <point x="1007" y="1099" type="curve" smooth="yes"/>
      <point x="1006" y="1281"/>
      <point x="835" y="1403"/>
      <point x="608" y="1403" type="curve" smooth="yes"/>
      <point x="296" y="1403"/>
      <point x="157" y="1233"/>
      <point x="157" y="955" type="curve" smooth="yes"/>
      <point x="161" y="954"/>
      <point x="163" y="0"/>
    </contour>
  </outline>
</glyph>
<glyph name="ae" format="1">
  <advance width="1759"/>
  <unicode hex="00E6"/>
  <outline>
    <contour>
      <point x="429" y="-23" type="curve" smooth="yes"/>
      <point x="632" y="-23"/>
      <point x="789" y="60"/>
      <point x="861" y="220" type="curve"/>
      <point x="903" y="101"/>
      <point x="1041" y="-21"/>
      <point x="1279" y="-21" type="curve" smooth="yes"/>
      <point x="1490" y="-21"/>
      <point x="1578" y="44"/>
      <point x="1663" y="100" type="curve"/>
      <point x="1618" y="228" type="line"/>
      <point x="1597" y="228" type="line"/>
      <point x="1558" y="192"/>
      <point x="1458" y="128"/>
      <point x="1295" y="128" type="curve" smooth="yes"/>
      <point x="1067" y="128"/>
      <point x="935" y="267"/>
      <point x="934" y="468" type="curve"/>
      <point x="1681" y="468" type="line"/>
      <point x="1681" y="503" type="line" smooth="yes"/>
      <point x="1681" y="804"/>
      <point x="1542" y="1055"/>
      <point x="1227" y="1055" type="curve" smooth="yes"/>
      <point x="1104" y="1055"/>
      <point x="940" y="986"/>
      <point x="875" y="874" type="curve"/>
      <point x="810" y="1025"/>
      <point x="670" y="1058"/>
      <point x="495" y="1058" type="curve" smooth="yes"/>
      <point x="380" y="1058"/>
      <point x="210" y="1025"/>
      <point x="143" y="979" type="curve"/>
      <point x="183" y="841" type="line"/>
      <point x="271" y="884"/>
      <point x="399" y="911"/>
      <point x="510" y="911" type="curve" smooth="yes"/>
      <point x="739" y="911"/>
      <point x="765" y="803"/>
      <point x="770" y="636" type="curve"/>
      <point x="687" y="636"/>
      <point x="602" y="632"/>
      <point x="534" y="626" type="curve" smooth="yes"/>
      <point x="200" y="596"/>
      <point x="81" y="489"/>
      <point x="81" y="297" type="curve" smooth="yes"/>
      <point x="81" y="57"/>
      <point x="278" y="-23"/>
    </contour>
    <contour>
      <point x="427" y="115" type="curve" smooth="yes"/>
      <point x="311" y="115"/>
      <point x="251" y="189"/>
      <point x="251" y="300" type="curve" smooth="yes"/>
      <point x="251" y="416"/>
      <point x="308" y="512"/>
      <point x="770" y="513" type="curve"/>
      <point x="767" y="244"/>
      <point x="665" y="115"/>
    </contour>
    <contour>
      <point x="937" y="596" type="line"/>
      <point x="952" y="739"/>
      <point x="1038" y="912"/>
      <point x="1241" y="912" type="curve" smooth="yes"/>
      <point x="1435" y="912"/>
      <point x="1504" y="733"/>
      <point x="1506" y="596" type="curve"/>
    </contour>
  </outline>
</glyph>
<glyph name="eth" format="1">
  <advance width="1850"/>
  <unicode hex="00F0"/>
  <outline>
    <contour>
      <point x="617" y="-23" type="curve" smooth="yes"/>
      <point x="326" y="-23"/>
      <point x="120" y="164"/>
      <point x="120" y="453" type="curve" smooth="yes"/>
      <point x="120" y="734"/>
      <point x="348" y="890"/>
      <point x="581" y="890" type="curve" smooth="yes"/>
      <point x="668" y="890"/>
      <point x="867" y="855"/>
      <point x="943" y="709" type="curve"/>
      <point x="914" y="878"/>
      <point x="844" y="1045"/>
      <point x="733" y="1165" type="curve"/>
      <point x="580" y="1014" type="line"/>
      <point x="486" y="1099" type="line"/>
      <point x="639" y="1250" type="line"/>
      <point x="552" y="1312"/>
      <point x="451" y="1348"/>
      <point x="330" y="1349" type="curve"/>
      <point x="330" y="1349"/>
      <point x="358" y="1481"/>
      <point x="363" y="1481" type="curve" smooth="yes"/>
      <point x="513" y="1481"/>
      <point x="641" y="1435"/>
      <point x="749" y="1359" type="curve"/>
      <point x="912" y="1520" type="line"/>
      <point x="1005" y="1436" type="line"/>
      <point x="845" y="1276" type="line"/>
      <point x="1029" y="1091"/>
      <point x="1125" y="804"/>
      <point x="1125" y="534" type="curve" smooth="yes"/>
      <point x="1125" y="186"/>
      <point x="918" y="-23"/>
    </contour>
    <contour>
      <point x="633" y="114" type="curve" smooth="yes"/>
      <point x="827" y="114"/>
      <point x="935" y="273"/>
      <point x="935" y="422" type="curve" smooth="yes"/>
      <point x="935" y="595"/>
      <point x="844" y="753"/>
      <point x="602" y="753" type="curve" smooth="yes"/>
      <point x="399" y="753"/>
      <point x="298" y="599"/>
      <point x="298" y="455" type="curve" smooth="yes"/>
      <point x="298" y="275"/>
      <point x="376" y="114"/>
    </contour>
  </outline>
</glyph>
<glyph name="divide" format="1">
  <advance width="1187"/>
  <unicode hex="00F7"/>
  <outline>
    <contour>
      <point x="578" y="0" type="curve" smooth="yes"/>
      <point x="664" y="0"/>
      <point x="733" y="70"/>
      <point x="733" y="154" type="curve" smooth="yes"/>
      <point x="733" y="239"/>
      <point x="664" y="309"/>
      <point x="578" y="309" type="curve" smooth="yes"/>
      <point x="493" y="309"/>
      <point x="425" y="239"/>
      <point x="425" y="154" type="curve" smooth="yes"/>
      <point x="425" y="70"/>
      <point x="493" y="0"/>
    </contour>
    <contour>
      <point x="98" y="448" type="line"/>
      <point x="1089" y="448" type="line"/>
      <point x="1089" y="604" type="line"/>
      <point x="98" y="604" type="line"/>
    </contour>
    <contour>
      <point x="578" y="737" type="curve" smooth="yes"/>
      <point x="664" y="737"/>
      <point x="733" y="808"/>
      <point x="733" y="893" type="curve" smooth="yes"/>
      <point x="733" y="978"/>
      <point x="664" y="1047"/>
      <point x="578" y="1047" type="curve" smooth="yes"/>
      <point x="493" y="1047"/>
      <point x="425" y="978"/>
      <point x="425" y="893" type="curve" smooth="yes"/>
      <point x="425" y="808"/>
      <point x="493" y="737"/>
    </contour>
  </outline>
</glyph>
<glyph name="oslash" format="1">
  <advance width="1178"/>
  <unicode hex="00F8"/>
  <outline>
    <contour>
      <point x="550" y="-23" type="curve" smooth="yes"/>
      <point x="787" y="-23"/>
      <point x="1026" y="118"/>
      <point x="1026" y="477" type="curve" smooth="yes"/>
      <point x="1026" y="625"/>
      <point x="993" y="741"/>
      <point x="931" y="821" type="curve"/>
      <point x="937" y="817"/>
      <point x="1065" y="952"/>
      <point x="1073" y="952" type="curve"/>
      <point x="1094" y="952"/>
      <point x="989" y="965"/>
      <point x="989" y="993" type="curve"/>
      <point x="989" y="1006"/>
      <point x="922" y="945"/>
      <point x="917" y="952" type="curve"/>
      <point x="833" y="1019"/>
      <point x="736" y="1058"/>
      <point x="628" y="1058" type="curve" smooth="yes"/>
      <point x="406" y="1058"/>
      <point x="157" y="923"/>
      <point x="157" y="562" type="curve" smooth="yes"/>
      <point x="157" y="410"/>
      <point x="191" y="291"/>
      <point x="256" y="210" type="curve"/>
      <point x="249" y="215"/>
      <point x="122" y="80"/>
      <point x="113" y="80" type="curve"/>
      <point x="92" y="80"/>
      <point x="197" y="68"/>
      <point x="197" y="39" type="curve"/>
      <point x="197" y="26"/>
      <point x="263" y="89"/>
      <point x="270" y="82" type="curve"/>
      <point x="352" y="18"/>
      <point x="446" y="-23"/>
    </contour>
    <contour>
      <point x="323" y="281" type="line"/>
      <point x="289" y="343"/>
      <point x="271" y="423"/>
      <point x="271" y="519" type="curve" smooth="yes"/>
      <point x="271" y="772"/>
      <point x="408" y="908"/>
      <point x="588" y="908" type="curve" smooth="yes"/>
      <point x="676" y="908"/>
      <point x="748" y="884"/>
      <point x="803" y="832" type="curve"/>
    </contour>
    <contour>
      <point x="590" y="126" type="curve" smooth="yes"/>
      <point x="510" y="126"/>
      <point x="439" y="153"/>
      <point x="386" y="201" type="curve"/>
      <point x="863" y="749" type="line"/>
      <point x="893" y="689"/>
      <point x="909" y="611"/>
      <point x="909" y="517" type="curve" smooth="yes"/>
      <point x="909" y="279"/>
      <point x="803" y="126"/>
    </contour>
  </outline>
</glyph>
<glyph name="thorn" format="1">
  <advance width="1157"/>
  <unicode hex="00FE"/>
  <outline>
    <contour>
      <point x="132" y="-388" type="line"/>
      <point x="313" y="-388" type="line"/>
      <point x="313" y="104" type="line"/>
      <point x="387" y="13"/>
      <point x="508" y="-21"/>
      <point x="630" y="-21" type="curve" smooth="yes"/>
      <point x="883" y="-21"/>
      <point x="1070" y="158"/>
      <point x="1070" y="510" type="curve" smooth="yes"/>
      <point x="1070" y="855"/>
      <point x="896" y="1053"/>
      <point x="623" y="1053" type="curve" smooth="yes"/>
      <point x="500" y="1053"/>
      <point x="376" y="985"/>
      <point x="313" y="885" type="curve"/>
      <point x="313" y="1429" type="line"/>
      <point x="132" y="1429" type="line"/>
    </contour>
    <contour>
      <point x="600" y="115" type="curve" smooth="yes"/>
      <point x="548" y="115"/>
      <point x="394" y="133"/>
      <point x="313" y="231" type="curve"/>
      <point x="313" y="787" type="line"/>
      <point x="385" y="880"/>
      <point x="529" y="909"/>
      <point x="608" y="909" type="curve" smooth="yes"/>
      <point x="835" y="909"/>
      <point x="887" y="725"/>
      <point x="887" y="511" type="curve" smooth="yes"/>
      <point x="887" y="264"/>
      <point x="784" y="115"/>
    </contour>
  </outline>
</glyph>
<glyph name="Dcroat" format="1">
  <advance width="1416"/>
  <unicode hex="0110"/>
  <outline>
    <contour>
      <point x="318" y="137" type="line"/>
      <point x="574" y="137" type="line" smooth="yes"/>
      <point x="957" y="137"/>
      <point x="1137" y="325"/>
      <point x="1137" y="740" type="curve" smooth="yes"/>
      <point x="1137" y="1133"/>
      <point x="942" y="1342"/>
      <point x="579" y="1342" type="curve" smooth="yes"/>
      <point x="318" y="1342" type="line"/>
      <point x="318" y="840" type="line"/>
      <point x="687" y="840" type="line"/>
      <point x="687" y="720" type="line"/>
      <point x="318" y="720" type="line"/>
    </contour>
    <contour>
      <point x="0" y="720" type="line"/>
      <point x="0" y="840" type="line"/>
      <point x="135" y="840" type="line"/>
      <point x="135" y="1481" type="line"/>
      <point x="552" y="1481" type="line" smooth="yes"/>
      <point x="1034" y="1481"/>
      <point x="1319" y="1246"/>
      <point x="1319" y="740" type="curve" smooth="yes"/>
      <point x="1319" y="242"/>
      <point x="1067" y="0"/>
      <point x="547" y="0" type="curve" smooth="yes"/>
      <point x="135" y="0" type="line"/>
      <point x="135" y="720" type="line"/>
    </contour>
  </outline>
</glyph>
<glyph name="dcroat" format="1">
  <advance width="1141"/>
  <unicode hex="0111"/>
  <outline>
    <contour>
      <point x="555" y="-29" type="curve"/>
      <point x="677" y="-29"/>
      <point x="803" y="29"/>
      <point x="846" y="118" type="curve"/>
      <point x="846" y="0" type="line"/>
      <point x="1027" y="0" type="line"/>
      <point x="1027" y="1429" type="line"/>
      <point x="846" y="1429" type="line"/>
      <point x="846" y="906" type="line"/>
      <point x="783" y="1017"/>
      <point x="636" y="1053"/>
      <point x="528" y="1053" type="curve" smooth="yes"/>
      <point x="290" y="1053"/>
      <point x="90" y="864"/>
      <point x="90" y="506" type="curve" smooth="yes"/>
      <point x="90" y="149"/>
      <point x="296" y="-29"/>
    </contour>
    <contour>
      <point x="570" y="115" type="curve" smooth="yes"/>
      <point x="363" y="115"/>
      <point x="272" y="280"/>
      <point x="272" y="516" type="curve" smooth="yes"/>
      <point x="272" y="770"/>
      <point x="395" y="908"/>
      <point x="568" y="908" type="curve" smooth="yes"/>
      <point x="697" y="908"/>
      <point x="820" y="842"/>
      <point x="846" y="788" type="curve"/>
      <point x="846" y="242" type="line"/>
      <point x="824" y="190"/>
      <point x="702" y="115"/>
    </contour>
  </outline>
</glyph>
<glyph name="Hbar" format="1">
  <advance width="1390"/>
  <unicode hex="0126"/>
  <outline>
    <contour>
      <point x="1072" y="1208" type="line"/>
      <point x="318" y="1208" type="line"/>
      <point x="318" y="830" type="line"/>
      <point x="1072" y="830" type="line"/>
    </contour>
    <contour>
      <point x="55" y="1208" type="line"/>
      <point x="55" y="1324" type="line"/>
      <point x="135" y="1324" type="line"/>
      <point x="135" y="1481" type="line"/>
      <point x="318" y="1481" type="line"/>
      <point x="318" y="1324" type="line"/>
      <point x="1072" y="1324" type="line"/>
      <point x="1072" y="1481" type="line"/>
      <point x="1255" y="1481" type="line"/>
      <point x="1255" y="1324" type="line"/>
      <point x="1333" y="1324" type="line"/>
      <point x="1333" y="1208" type="line"/>
      <point x="1255" y="1208" type="line"/>
      <point x="1255" y="0" type="line"/>
      <point x="1072" y="0" type="line"/>
      <point x="1072" y="697" type="line"/>
      <point x="318" y="697" type="line"/>
      <point x="318" y="0" type="line"/>
      <point x="135" y="0" type="line"/>
      <point x="135" y="1208" type="line"/>
    </contour>
  </outline>
</glyph>
<glyph name="lslash" format="1">
  <advance width="567"/>
  <unicode hex="0142"/>
  <outline>
    <contour>
      <point x="452" y="-9" type="curve" smooth="yes"/>
      <point x="534" y="-9" type="line"/>
      <point x="534" y="136" type="line"/>
      <point x="328" y="136"/>
      <point x="316" y="162"/>
      <point x="316" y="310" type="curve" smooth="yes"/>
      <point x="316" y="762" type="line"/>
      <point x="480" y="890" type="line"/>
      <point x="480" y="1033" type="line"/>
      <point x="316" y="905" type="line"/>
      <point x="316" y="1429" type="line"/>
      <point x="133" y="1429" type="line"/>
      <point x="133" y="766" type="line"/>
      <point x="26" y="683" type="line"/>
      <point x="26" y="541" type="line"/>
      <point x="133" y="622" type="line"/>
      <point x="133" y="316" type="line" smooth="yes"/>
      <point x="133" y="134"/>
      <point x="136" y="-9"/>
    </contour>
  </outline>
</glyph>
<glyph name="OE" format="1">
  <advance width="1919"/>
  <unicode hex="0152"/>
  <outline>
    <contour>
      <point x="738" y="0" type="curve" smooth="yes"/>
      <point x="1799" y="0" type="line"/>
      <point x="1799" y="136" type="line"/>
      <point x="1175" y="136" type="line"/>
      <point x="1175" y="717" type="line"/>
      <point x="1718" y="717" type="line"/>
      <point x="1718" y="854" type="line"/>
      <point x="1175" y="854" type="line"/>
      <point x="1175" y="1344" type="line"/>
      <point x="1799" y="1344" type="line"/>
      <point x="1799" y="1481" type="line"/>
      <point x="692" y="1481" type="line" smooth="yes"/>
      <point x="266" y="1481"/>
      <point x="99" y="1121"/>
      <point x="99" y="759" type="curve" smooth="yes"/>
      <point x="99" y="451"/>
      <point x="153" y="0"/>
    </contour>
    <contour>
      <point x="707" y="136" type="line" smooth="yes"/>
      <point x="370" y="136"/>
      <point x="281" y="443"/>
      <point x="281" y="757" type="curve" smooth="yes"/>
      <point x="281" y="1076"/>
      <point x="388" y="1344"/>
      <point x="712" y="1344" type="curve" smooth="yes"/>
      <point x="993" y="1344" type="line"/>
      <point x="993" y="136" type="line"/>
    </contour>
  </outline>
</glyph>
<glyph name="oe" format="1">
  <advance width="1856"/>
  <unicode hex="0153"/>
  <outline>
    <contour>
      <point x="543" y="-27" type="curve" smooth="yes"/>
      <point x="750" y="-27"/>
      <point x="877" y="67"/>
      <point x="957" y="188" type="curve"/>
      <point x="1030" y="66"/>
      <point x="1201" y="-23"/>
      <point x="1374" y="-23" type="curve" smooth="yes"/>
      <point x="1594" y="-23"/>
      <point x="1689" y="45"/>
      <point x="1770" y="101" type="curve"/>
      <point x="1727" y="211" type="line"/>
      <point x="1669" y="211" type="line"/>
      <point x="1641" y="180"/>
      <point x="1578" y="119"/>
      <point x="1398" y="119" type="curve" smooth="yes"/>
      <point x="1149" y="119"/>
      <point x="1050" y="298"/>
      <point x="1050" y="465" type="curve" smooth="yes"/>
      <point x="1779" y="469" type="line"/>
      <point x="1779" y="505" type="line" smooth="yes"/>
      <point x="1779" y="811"/>
      <point x="1634" y="1049"/>
      <point x="1323" y="1049" type="curve" smooth="yes"/>
      <point x="1125" y="1049"/>
      <point x="1006" y="915"/>
      <point x="949" y="822" type="curve"/>
      <point x="900" y="942"/>
      <point x="759" y="1055"/>
      <point x="548" y="1055" type="curve" smooth="yes"/>
      <point x="480" y="1055"/>
      <point x="48" y="1010"/>
      <point x="48" y="515" type="curve" smooth="yes"/>
      <point x="48" y="29"/>
      <point x="468" y="-27"/>
    </contour>
    <contour>
      <point x="546" y="121" type="curve" smooth="yes"/>
      <point x="413" y="121"/>
      <point x="227" y="201"/>
      <point x="227" y="513" type="curve" smooth="yes"/>
      <point x="227" y="828"/>
      <point x="435" y="912"/>
      <point x="539" y="912" type="curve" smooth="yes"/>
      <point x="718" y="912"/>
      <point x="862" y="840"/>
      <point x="862" y="512" type="curve" smooth="yes"/>
      <point x="862" y="212"/>
      <point x="686" y="121"/>
    </contour>
    <contour>
      <point x="1057" y="600" type="line"/>
      <point x="1073" y="711"/>
      <point x="1131" y="905"/>
      <point x="1355" y="905" type="curve" smooth="yes"/>
      <point x="1546" y="905"/>
      <point x="1608" y="729"/>
      <point x="1613" y="600" type="curve"/>
    </contour>
  </outline>
</glyph>
<glyph name="florin" format="1">
  <advance width="1168"/>
  <unicode hex="0192"/>
  <outline>
    <contour>
      <point x="228" y="-246" type="curve" smooth="yes"/>
      <point x="440" y="-246"/>
      <point x="552" y="-121"/>
      <point x="603" y="138" type="curve"/>
      <point x="618" y="228"/>
      <point x="660" y="503"/>
      <point x="693" y="725" type="curve"/>
      <point x="984" y="725" type="line"/>
      <point x="1003" y="830" type="line"/>
      <point x="710" y="830" type="line"/>
      <point x="726" y="934"/>
      <point x="737" y="1012"/>
      <point x="739" y="1025" type="curve" smooth="yes"/>
      <point x="778" y="1253"/>
      <point x="822" y="1348"/>
      <point x="948" y="1348" type="curve" smooth="yes"/>
      <point x="981" y="1348"/>
      <point x="1040" y="1340"/>
      <point x="1067" y="1328" type="curve"/>
      <point x="1089" y="1465" type="line"/>
      <point x="1060" y="1475"/>
      <point x="1016" y="1483"/>
      <point x="966" y="1483" type="curve" smooth="yes"/>
      <point x="740" y="1483"/>
      <point x="595" y="1337"/>
      <point x="551" y="1066" type="curve" smooth="yes"/>
      <point x="548" y="1049"/>
      <point x="532" y="953"/>
      <point x="514" y="830" type="curve"/>
      <point x="275" y="830" type="line"/>
      <point x="256" y="725" type="line"/>
      <point x="499" y="725" type="line"/>
      <point x="464" y="489"/>
      <point x="421" y="214"/>
      <point x="414" y="172" type="curve" smooth="yes"/>
      <point x="376" y="-62"/>
      <point x="313" y="-99"/>
      <point x="226" y="-99" type="curve" smooth="yes"/>
      <point x="195" y="-99"/>
      <point x="147" y="-90"/>
      <point x="120" y="-78" type="curve"/>
      <point x="95" y="-225" type="line"/>
      <point x="127" y="-236"/>
      <point x="173" y="-246"/>
    </contour>
  </outline>
</glyph>
<glyph name="uni0237" format="1">
  <advance width="522"/>
  <unicode hex="0237"/>
  <outline>
    <contour>
      <point x="103" y="-373" type="curve" smooth="yes"/>
      <point x="333" y="-373"/>
      <point x="372" y="-209"/>
      <point x="372" y="10" type="curve" smooth="yes"/>
      <point x="372" y="1032" type="line"/>
      <point x="190" y="1032" type="line"/>
      <point x="190" y="-9" type="line" smooth="yes"/>
      <point x="190" y="-212"/>
      <point x="126" y="-227"/>
      <point x="24" y="-227" type="curve" smooth="yes"/>
      <point x="-7" y="-227"/>
      <point x="-19" y="-227"/>
      <point x="-55" y="-224" type="curve"/>
      <point x="-55" y="-366" type="line"/>
      <point x="-24" y="-369"/>
      <point x="0" y="-373"/>
    </contour>
  </outline>
</glyph>
<glyph name="circumflex" format="1">
  <advance width="858"/>
  <unicode hex="02C6"/>
  <outline>
    <contour>
      <point x="76" y="1164" type="line"/>
      <point x="228" y="1164" type="line"/>
      <point x="427" y="1398" type="line"/>
      <point x="630" y="1164" type="line"/>
      <point x="782" y="1164" type="line"/>
      <point x="494" y="1506" type="line"/>
      <point x="363" y="1506" type="line"/>
    </contour>
  </outline>
</glyph>
<glyph name="caron" format="1">
  <advance width="872"/>
  <unicode hex="02C7"/>
  <outline>
    <contour>
      <point x="368" y="1094" type="line"/>
      <point x="486" y="1094" type="line"/>
      <point x="793" y="1435" type="line"/>
      <point x="645" y="1435" type="line"/>
      <point x="428" y="1204" type="line"/>
      <point x="235" y="1435" type="line"/>
      <point x="79" y="1435" type="line"/>
    </contour>
  </outline>
</glyph>
<glyph name="uni02C9" format="1">
  <advance width="989"/>
  <unicode hex="02C9"/>
  <outline>
    <contour>
      <point x="216" y="1170" type="line"/>
      <point x="771" y="1170" type="line"/>
      <point x="771" y="1258" type="line"/>
      <point x="216" y="1258" type="line"/>
    </contour>
  </outline>
</glyph>
<glyph name="breve" format="1">
  <advance width="857"/>
  <unicode hex="02D8"/>
  <outline>
    <contour>
      <point x="428" y="1144" type="curve" smooth="yes"/>
      <point x="638" y="1144"/>
      <point x="767" y="1257"/>
      <point x="767" y="1471" type="curve"/>
      <point x="612" y="1471" type="line"/>
      <point x="611" y="1346"/>
      <point x="556" y="1290"/>
      <point x="428" y="1290" type="curve" smooth="yes"/>
      <point x="288" y="1290"/>
      <point x="245" y="1348"/>
      <point x="244" y="1471" type="curve"/>
      <point x="91" y="1471" type="line"/>
      <point x="91" y="1258"/>
      <point x="201" y="1144"/>
    </contour>
  </outline>
</glyph>
<glyph name="ogonek" format="1">
  <advance width="533"/>
  <unicode hex="02DB"/>
  <outline>
    <contour>
      <point x="285" y="-407" type="curve" smooth="yes"/>
      <point x="335" y="-407"/>
      <point x="395" y="-397"/>
      <point x="464" y="-374" type="curve"/>
      <point x="452" y="-264" type="line"/>
      <point x="411" y="-276"/>
      <point x="354" y="-290"/>
      <point x="319" y="-290" type="curve" smooth="yes"/>
      <point x="240" y="-290"/>
      <point x="208" y="-241"/>
      <point x="208" y="-174" type="curve" smooth="yes"/>
      <point x="209" y="-119"/>
      <point x="232" y="-54"/>
      <point x="270" y="5" type="curve"/>
      <point x="163" y="5" type="line"/>
      <point x="118" y="-47"/>
      <point x="75" y="-119"/>
      <point x="75" y="-209" type="curve" smooth="yes"/>
      <point x="77" y="-327"/>
      <point x="148" y="-407"/>
    </contour>
  </outline>
</glyph>
<glyph name="tilde" format="1">
  <advance width="856"/>
  <unicode hex="02DC"/>
  <outline>
    <contour>
      <point x="588" y="1096" type="curve" smooth="yes"/>
      <point x="703" y="1096"/>
      <point x="778" y="1161"/>
      <point x="778" y="1335" type="curve"/>
      <point x="640" y="1335" type="line"/>
      <point x="636" y="1264"/>
      <point x="620" y="1227"/>
      <point x="573" y="1227" type="curve" smooth="yes"/>
      <point x="513" y="1227"/>
      <point x="401" y="1334"/>
      <point x="264" y="1334" type="curve" smooth="yes"/>
      <point x="155" y="1334"/>
      <point x="78" y="1257"/>
      <point x="78" y="1097" type="curve"/>
      <point x="217" y="1097" type="line"/>
      <point x="220" y="1165"/>
      <point x="237" y="1201"/>
      <point x="278" y="1201" type="curve" smooth="yes"/>
      <point x="353" y="1201"/>
      <point x="469" y="1096"/>
    </contour>
  </outline>
</glyph>
<glyph name="uni0311" format="1">
  <advance width="857"/>
  <unicode hex="0311"/>
  <outline>
    <contour>
      <point x="111" y="1147" type="line"/>
      <point x="114" y="1354"/>
      <point x="237" y="1464"/>
      <point x="429" y="1464" type="curve" smooth="yes"/>
      <point x="636" y="1464"/>
      <point x="743" y="1354"/>
      <point x="746" y="1147" type="curve"/>
      <point x="606" y="1147" type="line"/>
      <point x="598" y="1247"/>
      <point x="559" y="1321"/>
      <point x="429" y="1321" type="curve" smooth="yes"/>
      <point x="311" y="1321"/>
      <point x="262" y="1251"/>
      <point x="254" y="1147" type="curve"/>
    </contour>
  </outline>
</glyph>
<glyph name="uni0326" format="1">
  <advance width="470"/>
  <unicode hex="0326"/>
  <outline>
    <contour>
      <point x="72" y="-146" type="line"/>
      <point x="171" y="340" type="line"/>
      <point x="364" y="340" type="line"/>
      <point x="199" y="-146" type="line"/>
    </contour>
  </outline>
</glyph>
<glyph name="Delta" format="1">
  <advance width="1153"/>
  <unicode hex="0394"/>
  <outline>
    <contour>
      <point x="81" y="0" type="line"/>
      <point x="1073" y="0" type="line"/>
      <point x="1073" y="80" type="line"/>
      <point x="692" y="1370" type="line"/>
      <point x="476" y="1370" type="line"/>
      <point x="81" y="77" type="line"/>
    </contour>
    <contour>
      <point x="271" y="115" type="line"/>
      <point x="273" y="115"/>
      <point x="564" y="1163"/>
      <point x="580" y="1240" type="curve"/>
      <point x="585" y="1240" type="line"/>
      <point x="587" y="1233"/>
      <point x="879" y="115"/>
      <point x="879" y="115" type="curve"/>
    </contour>
  </outline>
</glyph>
<glyph name="Omega" format="1">
  <advance width="1417"/>
  <unicode hex="03A9"/>
  <outline>
    <contour>
      <point x="77" y="0" type="line"/>
      <point x="609" y="0" type="line"/>
      <point x="609" y="198" type="line"/>
      <point x="447" y="334"/>
      <point x="370" y="504"/>
      <point x="370" y="719" type="curve" smooth="yes"/>
      <point x="370" y="974"/>
      <point x="514" y="1136"/>
      <point x="714" y="1136" type="curve" smooth="yes"/>
      <point x="915" y="1136"/>
      <point x="1045" y="954"/>
      <point x="1045" y="725" type="curve" smooth="yes"/>
      <point x="1045" y="493"/>
      <point x="953" y="318"/>
      <point x="806" y="198" type="curve"/>
      <point x="806" y="0" type="line"/>
      <point x="1338" y="0" type="line"/>
      <point x="1338" y="215" type="line"/>
      <point x="1108" y="215" type="line"/>
      <point x="1035" y="216" type="line"/>
      <point x="1218" y="334"/>
      <point x="1331" y="522"/>
      <point x="1331" y="769" type="curve" smooth="yes"/>
      <point x="1331" y="1096"/>
      <point x="1087" y="1363"/>
      <point x="708" y="1363" type="curve" smooth="yes"/>
      <point x="345" y="1363"/>
      <point x="87" y="1119"/>
      <point x="87" y="765" type="curve" smooth="yes"/>
      <point x="87" y="519"/>
      <point x="203" y="312"/>
      <point x="376" y="215" type="curve"/>
      <point x="77" y="215" type="line"/>
    </contour>
  </outline>
</glyph>
<glyph name="pi" format="1">
  <advance width="1203"/>
  <unicode hex="03C0"/>
  <outline>
    <contour>
      <point x="155" y="0" type="curve"/>
      <point x="411" y="0" type="line"/>
      <point x="437" y="72"/>
      <point x="456" y="183"/>
      <point x="462" y="317" type="curve" smooth="yes"/>
      <point x="469" y="474"/>
      <point x="477" y="637"/>
      <point x="479" y="778" type="curve"/>
      <point x="719" y="778" type="line"/>
      <point x="719" y="326" type="line" smooth="yes"/>
      <point x="719" y="143"/>
      <point x="785" y="32"/>
      <point x="916" y="8" type="curve"/>
      <point x="954" y="1"/>
      <point x="991" y="-2"/>
      <point x="1027" y="7" type="curve"/>
      <point x="1090" y="151" type="line"/>
      <point x="1066" y="164"/>
      <point x="1045" y="185"/>
      <point x="1027" y="238" type="curve"/>
      <point x="992" y="251"/>
      <point x="973" y="288"/>
      <point x="973" y="357" type="curve" smooth="yes"/>
      <point x="973" y="778" type="line"/>
      <point x="1151" y="778" type="line"/>
      <point x="1156" y="978" type="line"/>
      <point x="328" y="978" type="line" smooth="yes"/>
      <point x="178" y="978"/>
      <point x="77" y="969"/>
      <point x="9" y="921" type="curve"/>
      <point x="18" y="719" type="line"/>
      <point x="81" y="758"/>
      <point x="146" y="778"/>
      <point x="227" y="778" type="curve"/>
      <point x="224" y="642"/>
      <point x="217" y="483"/>
      <point x="210" y="332" type="curve"/>
      <point x="201" y="201"/>
      <point x="185" y="83"/>
    </contour>
  </outline>
</glyph>
<glyph name="emdash" format="1">
  <advance width="2117"/>
  <unicode hex="2014"/>
  <outline>
    <contour>
      <point x="98" y="572" type="line"/>
      <point x="98" y="713" type="line"/>
      <point x="2019" y="713" type="line"/>
      <point x="2019" y="572" type="line"/>
    </contour>
  </outline>
</glyph>
<glyph name="quoteleft" format="1">
  <advance width="371"/>
  <unicode hex="2018"/>
  <outline>
    <contour>
      <point x="208" y="1012" type="line"/>
      <point x="39" y="1481" type="line"/>
      <point x="231" y="1481" type="line"/>
      <point x="328" y="1012" type="line"/>
    </contour>
  </outline>
</glyph>
<glyph name="quotesinglbase" format="1">
  <advance width="420"/>
  <unicode hex="201A"/>
  <outline>
    <contour>
      <point x="41" y="-244" type="line"/>
      <point x="199" y="-244" type="line"/>
      <point x="385" y="242" type="line"/>
      <point x="139" y="242" type="line"/>
    </contour>
  </outline>
</glyph>
<glyph name="quotedblright" format="1">
  <advance width="694"/>
  <unicode hex="201D"/>
  <outline>
    <contour>
      <point x="52" y="995" type="line"/>
      <point x="170" y="995" type="line"/>
      <point x="335" y="1481" type="line"/>
      <point x="142" y="1481" type="line"/>
    </contour>
    <contour>
      <point x="371" y="995" type="line"/>
      <point x="489" y="995" type="line"/>
      <point x="656" y="1481" type="line"/>
      <point x="462" y="1481" type="line"/>
    </contour>
  </outline>
</glyph>
<glyph name="quotedblbase" format="1">
  <advance width="833"/>
  <unicode hex="201E"/>
  <outline>
    <contour>
      <point x="37" y="-244" type="line"/>
      <point x="196" y="-244" type="line"/>
      <point x="420" y="242" type="line"/>
      <point x="135" y="242" type="line"/>
    </contour>
    <contour>
      <point x="421" y="-244" type="line"/>
      <point x="581" y="-244" type="line"/>
      <point x="805" y="242" type="line"/>
      <point x="519" y="242" type="line"/>
    </contour>
  </outline>
</glyph>
<glyph name="dagger" format="1">
  <advance width="1080"/>
  <unicode hex="2020"/>
  <outline>
    <contour>
      <point x="452" y="-49" type="line"/>
      <point x="635" y="-49" type="line"/>
      <point x="635" y="861" type="line"/>
      <point x="991" y="861" type="line"/>
      <point x="991" y="1000" type="line"/>
      <point x="638" y="1000" type="line"/>
      <point x="638" y="1428" type="line"/>
      <point x="456" y="1428" type="line"/>
      <point x="456" y="1002" type="line"/>
      <point x="90" y="1002" type="line"/>
      <point x="90" y="864" type="line"/>
      <point x="452" y="864" type="line"/>
    </contour>
  </outline>
</glyph>
<glyph name="daggerdbl" format="1">
  <advance width="1088"/>
  <unicode hex="2021"/>
  <outline>
    <contour>
      <point x="451" y="-49" type="line"/>
      <point x="636" y="-49" type="line"/>
      <point x="636" y="375" type="line"/>
      <point x="998" y="375" type="line"/>
      <point x="998" y="513" type="line"/>
      <point x="636" y="513" type="line"/>
      <point x="636" y="864" type="line"/>
      <point x="992" y="864" type="line"/>
      <point x="992" y="1003" type="line"/>
      <point x="639" y="1003" type="line"/>
      <point x="639" y="1428" type="line"/>
      <point x="453" y="1428" type="line"/>
      <point x="453" y="1005" type="line"/>
      <point x="91" y="1005" type="line"/>
      <point x="91" y="867" type="line"/>
      <point x="453" y="867" type="line"/>
      <point x="453" y="516" type="line"/>
      <point x="97" y="516" type="line"/>
      <point x="97" y="377" type="line"/>
      <point x="451" y="377" type="line"/>
    </contour>
  </outline>
</glyph>
<glyph name="bullet" format="1">
  <advance width="1061"/>
  <unicode hex="2022"/>
  <outline>
    <contour>
      <point x="532" y="217" type="curve" smooth="yes"/>
      <point x="786" y="217"/>
      <point x="974" y="405"/>
      <point x="974" y="652" type="curve" smooth="yes"/>
      <point x="974" y="896"/>
      <point x="788" y="1085"/>
      <point x="532" y="1085" type="curve" smooth="yes"/>
      <point x="279" y="1085"/>
      <point x="87" y="896"/>
      <point x="87" y="652" type="curve" smooth="yes"/>
      <point x="87" y="406"/>
      <point x="276" y="217"/>
    </contour>
  </outline>
</glyph>
<glyph name="perthousand" format="1">
  <advance width="2387"/>
  <unicode hex="2030"/>
  <outline>
    <contour>
      <point x="317" y="851" type="curve" smooth="yes"/>
      <point x="226" y="851"/>
      <point x="223" y="928"/>
      <point x="223" y="1032" type="curve" smooth="yes"/>
      <point x="223" y="1154"/>
      <point x="228" y="1227"/>
      <point x="317" y="1227" type="curve" smooth="yes"/>
      <point x="403" y="1227"/>
      <point x="415" y="1156"/>
      <point x="415" y="1045" type="curve"/>
      <point x="413" y="910"/>
      <point x="397" y="851"/>
    </contour>
    <contour>
      <point x="317" y="683" type="curve" smooth="yes"/>
      <point x="537" y="683"/>
      <point x="637" y="802"/>
      <point x="637" y="1063" type="curve" smooth="yes"/>
      <point x="637" y="1284"/>
      <point x="521" y="1391"/>
      <point x="317" y="1391" type="curve" smooth="yes"/>
      <point x="101" y="1391"/>
      <point x="-4" y="1275"/>
      <point x="-4" y="1013" type="curve" smooth="yes"/>
      <point x="-4" y="788"/>
      <point x="114" y="683"/>
    </contour>
    <contour>
      <point x="316" y="0" type="line"/>
      <point x="559" y="0" type="line"/>
      <point x="1287" y="1387" type="line"/>
      <point x="1046" y="1387" type="line"/>
    </contour>
    <contour>
      <point x="1301" y="164" type="curve" smooth="yes"/>
      <point x="1210" y="164"/>
      <point x="1203" y="241"/>
      <point x="1203" y="346" type="curve" smooth="yes"/>
      <point x="1203" y="466"/>
      <point x="1212" y="539"/>
      <point x="1301" y="539" type="curve" smooth="yes"/>
      <point x="1388" y="539"/>
      <point x="1398" y="469"/>
      <point x="1398" y="358" type="curve" smooth="yes"/>
      <point x="1397" y="223"/>
      <point x="1381" y="164"/>
    </contour>
    <contour>
      <point x="1301" y="-3" type="curve" smooth="yes"/>
      <point x="1522" y="-3"/>
      <point x="1621" y="115"/>
      <point x="1621" y="376" type="curve" smooth="yes"/>
      <point x="1621" y="597"/>
      <point x="1505" y="705"/>
      <point x="1301" y="705" type="curve" smooth="yes"/>
      <point x="1085" y="705"/>
      <point x="979" y="588"/>
      <point x="979" y="327" type="curve" smooth="yes"/>
      <point x="979" y="101"/>
      <point x="1098" y="-3"/>
    </contour>
    <contour>
      <point x="2072" y="164" type="curve" smooth="yes"/>
      <point x="1981" y="164"/>
      <point x="1976" y="242"/>
      <point x="1976" y="346" type="curve" smooth="yes"/>
      <point x="1976" y="466"/>
      <point x="1983" y="539"/>
      <point x="2072" y="539" type="curve" smooth="yes"/>
      <point x="2159" y="539"/>
      <point x="2169" y="469"/>
      <point x="2169" y="358" type="curve"/>
      <point x="2167" y="223"/>
      <point x="2152" y="164"/>
    </contour>
    <contour>
      <point x="2072" y="-3" type="curve" smooth="yes"/>
      <point x="2293" y="-3"/>
      <point x="2390" y="115"/>
      <point x="2390" y="376" type="curve" smooth="yes"/>
      <point x="2390" y="597"/>
      <point x="2276" y="705"/>
      <point x="2072" y="705" type="curve" smooth="yes"/>
      <point x="1856" y="705"/>
      <point x="1749" y="588"/>
      <point x="1749" y="327" type="curve" smooth="yes"/>
      <point x="1749" y="101"/>
      <point x="1869" y="-3"/>
    </contour>
  </outline>
</glyph>
<glyph name="guilsinglleft" format="1">
  <advance width="509"/>
  <unicode hex="2039"/>
  <outline>
    <contour>
      <point x="505" y="159" type="curve"/>
      <point x="505" y="354" type="line"/>
      <point x="499" y="358"/>
      <point x="164" y="578"/>
      <point x="158" y="583" type="curve"/>
      <point x="505" y="814" type="line"/>
      <point x="505" y="1021" type="line"/>
      <point x="505" y="1021"/>
      <point x="100" y="719"/>
      <point x="-3" y="634" type="curve"/>
      <point x="-3" y="533" type="line"/>
      <point x="99" y="457"/>
      <point x="505" y="159"/>
    </contour>
  </outline>
</glyph>
<glyph name="guilsinglright" format="1">
  <advance width="595"/>
  <unicode hex="203A"/>
  <outline>
    <contour>
      <point x="49" y="159" type="line"/>
      <point x="49" y="159"/>
      <point x="454" y="460"/>
      <point x="557" y="545" type="curve"/>
      <point x="557" y="648" type="line"/>
      <point x="455" y="724"/>
      <point x="49" y="1021"/>
      <point x="49" y="1021" type="curve"/>
      <point x="49" y="827" type="line"/>
      <point x="54" y="823"/>
      <point x="389" y="604"/>
      <point x="395" y="599" type="curve"/>
      <point x="49" y="367" type="line"/>
    </contour>
  </outline>
</glyph>
<glyph name="Euro" format="1">
  <advance width="1239"/>
  <unicode hex="20AC"/>
  <outline>
    <contour>
      <point x="836" y="-23" type="curve" smooth="yes"/>
      <point x="940" y="-23"/>
      <point x="1111" y="0"/>
      <point x="1236" y="114" type="curve"/>
      <point x="1236" y="347" type="line"/>
      <point x="1156" y="347" type="line"/>
      <point x="1122" y="124"/>
      <point x="896" y="119"/>
      <point x="808" y="119" type="curve"/>
      <point x="509" y="119"/>
      <point x="361" y="332"/>
      <point x="326" y="577" type="curve"/>
      <point x="993" y="577" type="line"/>
      <point x="1020" y="684" type="line"/>
      <point x="314" y="684" type="line"/>
      <point x="313" y="693"/>
      <point x="312" y="705"/>
      <point x="312" y="721" type="curve" smooth="yes"/>
      <point x="312" y="756"/>
      <point x="315" y="811"/>
      <point x="316" y="819" type="curve"/>
      <point x="1036" y="819" type="line"/>
      <point x="1064" y="923" type="line"/>
      <point x="328" y="923" type="line"/>
      <point x="387" y="1296"/>
      <point x="633" y="1374"/>
      <point x="801" y="1374" type="curve" smooth="yes"/>
      <point x="987" y="1374"/>
      <point x="1113" y="1293"/>
      <point x="1173" y="1133" type="curve"/>
      <point x="1236" y="1133" type="line"/>
      <point x="1236" y="1365" type="line"/>
      <point x="1117" y="1471"/>
      <point x="967" y="1503"/>
      <point x="826" y="1503" type="curve" smooth="yes"/>
      <point x="490" y="1503"/>
      <point x="231" y="1334"/>
      <point x="153" y="923" type="curve"/>
      <point x="10" y="923" type="line"/>
      <point x="-8" y="819" type="line"/>
      <point x="146" y="819" type="line"/>
      <point x="146" y="819"/>
      <point x="144" y="785"/>
      <point x="144" y="751" type="curve" smooth="yes"/>
      <point x="144" y="731"/>
      <point x="144" y="707"/>
      <point x="146" y="684" type="curve"/>
      <point x="19" y="684" type="line"/>
      <point x="-10" y="577" type="line"/>
      <point x="152" y="577" type="line"/>
      <point x="232" y="173"/>
      <point x="456" y="-23"/>
    </contour>
  </outline>
</glyph>
<glyph name="trademark" format="1">
  <advance width="1512"/>
  <unicode hex="2122"/>
  <outline>
    <contour>
      <point x="687" y="770" type="line"/>
      <point x="802" y="770" type="line"/>
      <point x="802" y="1370" type="line"/>
      <point x="807" y="1370" type="line"/>
      <point x="1010" y="907" type="line"/>
      <point x="1100" y="907" type="line"/>
      <point x="1295" y="1366" type="line"/>
      <point x="1302" y="1366" type="line"/>
      <point x="1302" y="770" type="line"/>
      <point x="1420" y="770" type="line"/>
      <point x="1420" y="1481" type="line"/>
      <point x="1245" y="1481" type="line"/>
      <point x="1056" y="1039" type="line"/>
      <point x="873" y="1481" type="line"/>
      <point x="687" y="1481" type="line"/>
    </contour>
    <contour>
      <point x="274" y="770" type="line"/>
      <point x="384" y="770" type="line"/>
      <point x="384" y="1390" type="line"/>
      <point x="577" y="1390" type="line"/>
      <point x="577" y="1481" type="line"/>
      <point x="81" y="1481" type="line"/>
      <point x="81" y="1390" type="line"/>
      <point x="274" y="1390" type="line"/>
    </contour>
  </outline>
</glyph>
<glyph name="partialdiff" format="1">
  <advance width="1094"/>
  <unicode hex="2202"/>
  <outline>
    <contour>
      <point x="446" y="-16" type="curve" smooth="yes"/>
      <point x="785" y="-16"/>
      <point x="987" y="267"/>
      <point x="1032" y="709" type="curve"/>
      <point x="1039" y="775"/>
      <point x="1045" y="840"/>
      <point x="1042" y="902" type="curve" smooth="yes"/>
      <point x="1029" y="1254"/>
      <point x="871" y="1428"/>
      <point x="602" y="1444" type="curve" smooth="yes"/>
      <point x="468" y="1452"/>
      <point x="365" y="1417"/>
      <point x="286" y="1372" type="curve"/>
      <point x="263" y="1170" type="line"/>
      <point x="339" y="1216"/>
      <point x="434" y="1257"/>
      <point x="549" y="1235" type="curve"/>
      <point x="693" y="1213"/>
      <point x="775" y="1073"/>
      <point x="775" y="861" type="curve" smooth="yes"/>
      <point x="775" y="853"/>
      <point x="775" y="834"/>
      <point x="772" y="816" type="curve"/>
      <point x="768" y="816" type="line"/>
      <point x="723" y="888"/>
      <point x="636" y="953"/>
      <point x="516" y="953" type="curve" smooth="yes"/>
      <point x="250" y="953"/>
      <point x="54" y="709"/>
      <point x="54" y="397" type="curve" smooth="yes"/>
      <point x="54" y="161"/>
      <point x="195" y="-16"/>
    </contour>
    <contour>
      <point x="481" y="188" type="curve" smooth="yes"/>
      <point x="380" y="188"/>
      <point x="326" y="267"/>
      <point x="326" y="400" type="curve" smooth="yes"/>
      <point x="326" y="580"/>
      <point x="433" y="763"/>
      <point x="571" y="763" type="curve" smooth="yes"/>
      <point x="661" y="763"/>
      <point x="722" y="698"/>
      <point x="744" y="611" type="curve"/>
      <point x="718" y="379"/>
      <point x="615" y="188"/>
    </contour>
  </outline>
</glyph>
<glyph name="product" format="1">
  <advance width="1277"/>
  <unicode hex="220F"/>
  <outline>
    <contour>
      <point x="98" y="-266" type="line"/>
      <point x="280" y="-266" type="line"/>
      <point x="280" y="1290" type="line"/>
      <point x="996" y="1290" type="line"/>
      <point x="996" y="-266" type="line"/>
      <point x="1178" y="-266" type="line"/>
      <point x="1178" y="1429" type="line"/>
      <point x="98" y="1429" type="line"/>
    </contour>
  </outline>
</glyph>
<glyph name="summation" format="1">
  <advance width="1137"/>
  <unicode hex="2211"/>
  <outline>
    <contour>
      <point x="86" y="0" type="line"/>
      <point x="1048" y="0" type="line"/>
      <point x="1048" y="128" type="line"/>
      <point x="274" y="128" type="line"/>
      <point x="789" y="766" type="line"/>
      <point x="290" y="1363" type="line"/>
      <point x="1017" y="1363" type="line"/>
      <point x="1017" y="1481" type="line"/>
      <point x="108" y="1481" type="line"/>
      <point x="108" y="1373" type="line"/>
      <point x="622" y="764" type="line"/>
      <point x="86" y="105" type="line"/>
    </contour>
  </outline>
</glyph>
<glyph name="uni2215" format="1">
  <advance width="262"/>
  <unicode hex="2215"/>
  <outline>
    <contour>
      <point x="-223" y="0" type="line"/>
      <point x="30" y="0" type="line"/>
      <point x="513" y="1479" type="line"/>
      <point x="258" y="1479" type="line"/>
    </contour>
  </outline>
</glyph>
<glyph name="uni2219" format="1">
  <advance width="390"/>
  <unicode hex="2219"/>
  <outline>
    <contour>
      <point x="195" y="433" type="curve" smooth="yes"/>
      <point x="267" y="433"/>
      <point x="322" y="488"/>
      <point x="322" y="560" type="curve" smooth="yes"/>
      <point x="322" y="632"/>
      <point x="267" y="688"/>
      <point x="195" y="688" type="curve" smooth="yes"/>
      <point x="123" y="688"/>
      <point x="65" y="632"/>
      <point x="65" y="560" type="curve" smooth="yes"/>
      <point x="65" y="488"/>
      <point x="123" y="433"/>
    </contour>
  </outline>
</glyph>
<glyph name="radical" format="1">
  <advance width="1024"/>
  <unicode hex="221A"/>
  <outline>
    <contour>
      <point x="467" y="-100" type="line"/>
      <point x="648" y="-100" type="line"/>
      <point x="1035" y="1482" type="line"/>
      <point x="888" y="1482" type="line"/>
      <point x="797" y="1108"/>
      <point x="697" y="645"/>
      <point x="606" y="272" type="curve" smooth="yes"/>
      <point x="552" y="47" type="line"/>
      <point x="550" y="51"/>
      <point x="507" y="208"/>
      <point x="488" y="264" type="curve"/>
      <point x="319" y="814" type="line"/>
      <point x="-3" y="773" type="line"/>
      <point x="9" y="649" type="line"/>
      <point x="213" y="676" type="line"/>
    </contour>
  </outline>
</glyph>
<glyph name="integral" format="1">
  <advance width="709"/>
  <unicode hex="222B"/>
  <outline>
    <contour>
      <point x="133" y="-409" type="curve" smooth="yes"/>
      <point x="343" y="-409"/>
      <point x="431" y="-284"/>
      <point x="440" y="-27" type="curve"/>
      <point x="440" y="1062" type="line" smooth="yes"/>
      <point x="440" y="1288"/>
      <point x="468" y="1384"/>
      <point x="591" y="1384" type="curve" smooth="yes"/>
      <point x="622" y="1384"/>
      <point x="686" y="1375"/>
      <point x="716" y="1362" type="curve"/>
      <point x="717" y="1500" type="line"/>
      <point x="684" y="1511"/>
      <point x="638" y="1518"/>
      <point x="584" y="1518" type="curve" smooth="yes"/>
      <point x="359" y="1518"/>
      <point x="245" y="1371"/>
      <point x="245" y="1103" type="curve" smooth="yes"/>
      <point x="245" y="10" type="line" smooth="yes"/>
      <point x="245" y="-219"/>
      <point x="193" y="-262"/>
      <point x="107" y="-262" type="curve" smooth="yes"/>
      <point x="76" y="-262"/>
      <point x="24" y="-253"/>
      <point x="-7" y="-240" type="curve"/>
      <point x="-7" y="-386" type="line"/>
      <point x="28" y="-398"/>
      <point x="76" y="-409"/>
    </contour>
  </outline>
</glyph>
<glyph name="approxequal" format="1">
  <advance width="1045"/>
  <unicode hex="2248"/>
  <outline>
    <contour>
      <point x="196" y="220" type="line"/>
      <point x="213" y="309"/>
      <point x="255" y="367"/>
      <point x="337" y="367" type="curve" smooth="yes"/>
      <point x="374" y="367"/>
      <point x="423" y="343"/>
      <point x="491" y="305" type="curve" smooth="yes"/>
      <point x="586" y="252"/>
      <point x="658" y="226"/>
      <point x="723" y="226" type="curve" smooth="yes"/>
      <point x="883" y="226"/>
      <point x="958" y="307"/>
      <point x="981" y="475" type="curve"/>
      <point x="852" y="498" type="line"/>
      <point x="843" y="415"/>
      <point x="797" y="374"/>
      <point x="723" y="363" type="curve" smooth="yes"/>
      <point x="685" y="353"/>
      <point x="621" y="381"/>
      <point x="549" y="424" type="curve"/>
      <point x="479" y="463"/>
      <point x="407" y="494"/>
      <point x="328" y="494" type="curve" smooth="yes"/>
      <point x="169" y="494"/>
      <point x="87" y="415"/>
      <point x="64" y="241" type="curve"/>
    </contour>
    <contour>
      <point x="196" y="607" type="line"/>
      <point x="213" y="694"/>
      <point x="255" y="750"/>
      <point x="337" y="750" type="curve" smooth="yes"/>
      <point x="375" y="750"/>
      <point x="425" y="727"/>
      <point x="491" y="690" type="curve"/>
      <point x="584" y="636"/>
      <point x="657" y="610"/>
      <point x="724" y="610" type="curve" smooth="yes"/>
      <point x="882" y="610"/>
      <point x="958" y="692"/>
      <point x="981" y="860" type="curve"/>
      <point x="852" y="882" type="line"/>
      <point x="841" y="797"/>
      <point x="794" y="748"/>
      <point x="715" y="746" type="curve" smooth="yes"/>
      <point x="711" y="745"/>
      <point x="615" y="768"/>
      <point x="549" y="807" type="curve" smooth="yes"/>
      <point x="480" y="847"/>
      <point x="406" y="878"/>
      <point x="329" y="878" type="curve" smooth="yes"/>
      <point x="169" y="878"/>
      <point x="87" y="801"/>
      <point x="64" y="628" type="curve"/>
    </contour>
  </outline>
</glyph>
<glyph name="notequal" format="1">
  <advance width="1094"/>
  <unicode hex="2260"/>
  <outline>
    <contour>
      <point x="222" y="38" type="line"/>
      <point x="352" y="56" type="line"/>
      <point x="514" y="297" type="line"/>
      <point x="1000" y="309" type="line"/>
      <point x="960" y="406" type="line"/>
      <point x="542" y="424" type="line"/>
      <point x="700" y="688" type="line"/>
      <point x="1000" y="700" type="line"/>
      <point x="984" y="799" type="line"/>
      <point x="734" y="817" type="line"/>
      <point x="846" y="1054" type="line"/>
      <point x="723" y="1036" type="line"/>
      <point x="557" y="799" type="line"/>
      <point x="98" y="787" type="line"/>
      <point x="129" y="688" type="line"/>
      <point x="534" y="671" type="line"/>
      <point x="378" y="406" type="line"/>
      <point x="90" y="394" type="line"/>
      <point x="114" y="297" type="line"/>
      <point x="334" y="280" type="line"/>
    </contour>
  </outline>
</glyph>
<glyph name="lessequal" format="1">
  <advance width="1086"/>
  <unicode hex="2264"/>
  <outline>
    <contour>
      <point x="980" y="220" type="line"/>
      <point x="980" y="411" type="line"/>
      <point x="319" y="680" type="line"/>
      <point x="980" y="959" type="line"/>
      <point x="980" y="1151" type="line"/>
      <point x="107" y="755" type="line"/>
      <point x="107" y="605" type="line"/>
    </contour>
    <contour>
      <point x="90" y="1" type="line"/>
      <point x="993" y="1" type="line"/>
      <point x="993" y="168" type="line"/>
      <point x="90" y="168" type="line"/>
    </contour>
  </outline>
</glyph>
<glyph name="greaterequal" format="1">
  <advance width="1093"/>
  <unicode hex="2265"/>
  <outline>
    <contour>
      <point x="1000" y="1" type="line"/>
      <point x="96" y="1" type="line"/>
      <point x="96" y="168" type="line"/>
      <point x="1000" y="168" type="line"/>
    </contour>
    <contour>
      <point x="96" y="295" type="line"/>
      <point x="96" y="464" type="line"/>
      <point x="812" y="678" type="line"/>
      <point x="96" y="888" type="line"/>
      <point x="96" y="1066" type="line"/>
      <point x="1000" y="750" type="line"/>
      <point x="1000" y="613" type="line"/>
    </contour>
  </outline>
</glyph>
<glyph name="lozenge" format="1">
  <advance width="997"/>
  <unicode hex="25CA"/>
  <outline>
    <contour>
      <point x="448" y="-30" type="line"/>
      <point x="543" y="-30" type="line"/>
      <point x="931" y="672" type="line"/>
      <point x="554" y="1373" type="line"/>
      <point x="452" y="1373" type="line"/>
      <point x="66" y="670" type="line"/>
    </contour>
    <contour>
      <point x="496" y="99" type="curve"/>
      <point x="194" y="674" type="line"/>
      <point x="196" y="674"/>
      <point x="501" y="1245"/>
      <point x="501" y="1246" type="curve"/>
      <point x="502" y="1245"/>
      <point x="803" y="669"/>
      <point x="803" y="669" type="curve" smooth="yes"/>
      <point x="803" y="667"/>
      <point x="496" y="97"/>
    </contour>
  </outline>
</glyph>
<glyph name="uniFB02" format="1">
  <advance width="1273"/>
  <unicode hex="FB02"/>
  <outline>
    <contour>
      <point x="205" y="0" type="line"/>
      <point x="205" y="907" type="line"/>
      <point x="25" y="907" type="line"/>
      <point x="25" y="1032" type="line"/>
      <point x="205" y="1032" type="line"/>
      <point x="205" y="1069" type="line" smooth="yes"/>
      <point x="205" y="1320"/>
      <point x="274" y="1433"/>
      <point x="540" y="1433" type="curve" smooth="yes"/>
      <point x="717.762" y="1433"/>
      <point x="874.497" y="1418.59"/>
      <point x="1022" y="1404" type="curve"/>
      <point x="1022" y="310" type="line" smooth="yes"/>
      <point x="1022" y="162"/>
      <point x="1053" y="132"/>
      <point x="1241" y="132" type="curve"/>
      <point x="1241" y="-9" type="line"/>
      <point x="1159" y="-9" type="line" smooth="yes"/>
      <point x="842" y="-9"/>
      <point x="840" y="134"/>
      <point x="840" y="316" type="curve" smooth="yes"/>
      <point x="840" y="1281.09" type="line"/>
      <point x="817.274" y="1282.17"/>
      <point x="607.819" y="1292"/>
      <point x="570" y="1292" type="curve" smooth="yes"/>
      <point x="424" y="1292"/>
      <point x="387" y="1257"/>
      <point x="387" y="1032" type="curve"/>
      <point x="663" y="1032" type="line"/>
      <point x="663" y="907" type="line"/>
      <point x="388" y="907" type="line"/>
      <point x="388" y="0" type="line"/>
    </contour>
  </outline>
</glyph>
<glyph name="dblgravecmb" format="1">
  <advance width="666"/>
  <outline>
    <contour>
      <point x="287" y="1123" type="line"/>
      <point x="409" y="1123" type="line"/>
      <point x="209" y="1466" type="line"/>
      <point x="-1" y="1466" type="line"/>
    </contour>
    <contour>
      <point x="540" y="1123" type="line"/>
      <point x="661" y="1123" type="line"/>
      <point x="474" y="1466" type="line"/>
      <point x="290" y="1466" type="line"/>
    </contour>
  </outline>
</glyph>
<glyph name="f_i" format="1">
  <advance width="1152"/>
  <outline>
    <contour>
      <point x="203" y="0" type="line"/>
      <point x="385" y="0" type="line"/>
      <point x="385" y="905" type="line"/>
      <point x="805" y="905" type="line"/>
      <point x="805" y="0" type="line"/>
      <point x="989" y="0" type="line"/>
      <point x="989" y="1032" type="line"/>
      <point x="377" y="1032" type="line"/>
      <point x="377" y="1257"/>
      <point x="422" y="1292"/>
      <point x="569" y="1292" type="curve" smooth="yes"/>
      <point x="608" y="1292"/>
      <point x="670" y="1281"/>
      <point x="670" y="1281" type="curve"/>
      <point x="670" y="1422" type="line"/>
      <point x="616" y="1428"/>
      <point x="612" y="1433"/>
      <point x="538" y="1433" type="curve" smooth="yes"/>
      <point x="272" y="1433"/>
      <point x="203" y="1320"/>
      <point x="203" y="1069" type="curve" smooth="yes"/>
      <point x="203" y="1032" type="line"/>
      <point x="23" y="1032" type="line"/>
      <point x="23" y="905" type="line"/>
      <point x="203" y="905" type="line"/>
    </contour>
    <contour>
      <point x="903" y="1186" type="curve" smooth="yes"/>
      <point x="987" y="1186"/>
      <point x="1029" y="1247"/>
      <point x="1029" y="1307" type="curve" smooth="yes"/>
      <point x="1029" y="1367"/>
      <point x="986" y="1428"/>
      <point x="903" y="1428" type="curve" smooth="yes"/>
      <point x="817" y="1428"/>
      <point x="775" y="1368"/>
      <point x="775" y="1307" type="curve" smooth="yes"/>
      <point x="775" y="1247"/>
      <point x="819" y="1186"/>
    </contour>
  </outline>
</glyph>
<glyph name="f_l" format="1">
  <advance width="1258"/>
  <outline>
    <contour>
      <point x="1143" y="-9" type="curve" smooth="yes"/>
      <point x="1225" y="-9" type="line"/>
      <point x="1225" y="140" type="line"/>
      <point x="1039" y="140"/>
      <point x="1006" y="151"/>
      <point x="1006" y="299" type="curve" smooth="yes"/>
      <point x="1006" y="1403" type="line"/>
      <point x="1006" y="1403"/>
      <point x="734" y="1433"/>
      <point x="576" y="1433" type="curve" smooth="yes"/>
      <point x="310" y="1433"/>
      <point x="203" y="1320"/>
      <point x="203" y="1069" type="curve" smooth="yes"/>
      <point x="203" y="1032" type="line"/>
      <point x="23" y="1032" type="line"/>
      <point x="23" y="905" type="line"/>
      <point x="203" y="905" type="line"/>
      <point x="203" y="0" type="line"/>
      <point x="385" y="0" type="line"/>
      <point x="385" y="905" type="line"/>
      <point x="661" y="905" type="line"/>
      <point x="661" y="1032" type="line"/>
      <point x="377" y="1032" type="line"/>
      <point x="377" y="1257"/>
      <point x="434" y="1299"/>
      <point x="605" y="1299" type="curve" smooth="yes"/>
      <point x="644" y="1299"/>
      <point x="824" y="1287"/>
      <point x="824" y="1287" type="curve"/>
      <point x="824" y="301" type="line" smooth="yes"/>
      <point x="824" y="119"/>
      <point x="827" y="-9"/>
    </contour>
  </outline>
</glyph>
<glyph name="one.superior" format="1">
  <advance width="577"/>
  <outline>
    <contour>
      <point x="90" y="552" type="line"/>
      <point x="506" y="552" type="line"/>
      <point x="506" y="653" type="line"/>
      <point x="365" y="653" type="line"/>
      <point x="365" y="1374" type="line"/>
      <point x="215" y="1374" type="line"/>
      <point x="194" y="1332"/>
      <point x="157" y="1296"/>
      <point x="76" y="1277" type="curve"/>
      <point x="76" y="1194" type="line"/>
      <point x="231" y="1240" type="line"/>
      <point x="231" y="653" type="line"/>
      <point x="90" y="653" type="line"/>
    </contour>
  </outline>
</glyph>
<glyph name="three.superior" format="1">
  <advance width="694"/>
  <outline>
    <contour>
      <point x="316" y="545" type="curve" smooth="yes"/>
      <point x="513" y="545"/>
      <point x="629" y="643"/>
      <point x="629" y="784" type="curve" smooth="yes"/>
      <point x="629" y="894"/>
      <point x="542" y="965"/>
      <point x="467" y="988" type="curve"/>
      <point x="534" y="1018"/>
      <point x="600" y="1064"/>
      <point x="600" y="1168" type="curve" smooth="yes"/>
      <point x="600" y="1280"/>
      <point x="513" y="1382"/>
      <point x="312" y="1382" type="curve" smooth="yes"/>
      <point x="217" y="1382"/>
      <point x="122" y="1357"/>
      <point x="72" y="1321" type="curve"/>
      <point x="72" y="1226" type="line"/>
      <point x="104" y="1226" type="line"/>
      <point x="104" y="1226"/>
      <point x="175" y="1280"/>
      <point x="297" y="1280" type="curve" smooth="yes"/>
      <point x="412" y="1280"/>
      <point x="467" y="1235"/>
      <point x="467" y="1168" type="curve" smooth="yes"/>
      <point x="467" y="1092"/>
      <point x="426" y="1032"/>
      <point x="283" y="1032" type="curve" smooth="yes"/>
      <point x="217" y="1032" type="line"/>
      <point x="217" y="948" type="line"/>
      <point x="283" y="948" type="line" smooth="yes"/>
      <point x="439" y="948"/>
      <point x="498" y="860"/>
      <point x="498" y="784" type="curve" smooth="yes"/>
      <point x="498" y="695"/>
      <point x="427" y="645"/>
      <point x="302" y="645" type="curve" smooth="yes"/>
      <point x="154" y="645"/>
      <point x="104" y="704"/>
      <point x="104" y="704" type="curve"/>
      <point x="72" y="704" type="line"/>
      <point x="72" y="607" type="line"/>
      <point x="106" y="584"/>
      <point x="194" y="545"/>
    </contour>
  </outline>
</glyph>
<glyph name="two.superior" format="1">
  <advance width="660"/>
  <outline>
    <contour>
      <point x="85" y="553" type="line"/>
      <point x="570" y="553" type="line"/>
      <point x="570" y="653" type="line"/>
      <point x="235" y="653" type="line"/>
      <point x="430" y="846"/>
      <point x="567" y="996"/>
      <point x="567" y="1157" type="curve" smooth="yes"/>
      <point x="567" y="1295"/>
      <point x="482" y="1383"/>
      <point x="323" y="1383" type="curve" smooth="yes"/>
      <point x="241" y="1383"/>
      <point x="133" y="1345"/>
      <point x="97" y="1309" type="curve"/>
      <point x="121" y="1214" type="line"/>
      <point x="152" y="1243"/>
      <point x="247" y="1281"/>
      <point x="304" y="1281" type="curve" smooth="yes"/>
      <point x="418" y="1281"/>
      <point x="450" y="1233"/>
      <point x="450" y="1154" type="curve" smooth="yes"/>
      <point x="450" y="1028"/>
      <point x="249" y="811"/>
      <point x="85" y="651" type="curve"/>
    </contour>
  </outline>
</glyph>
